<svg width="660" height="384" viewBox="0 0 660 384" fill="none" xmlns="http://www.w3.org/2000/svg">
<path d="M203.902 15.4189L198.239 12.9649C197.539 12.6619 196.731 12.9599 196.382 13.6449C195.425 15.5249 193.229 19.4379 189.266 24.5409L199.695 29.0609L204.661 17.3379C204.975 16.5959 204.636 15.7369 203.902 15.4189Z" fill="#8B4128"/>
<path d="M199.695 29.061L189.266 24.541C180.055 36.402 161.293 54.696 126.308 68.854C86.0221 85.157 45.4581 72.986 25.5461 64.688C19.0211 61.969 12.6461 68.857 15.7581 75.262C26.3911 97.141 61.0641 128.187 120.892 119.596C198.911 108.394 199.695 29.061 199.695 29.061Z" fill="#FAC46A"/>
<path d="M206.806 16.0614L200.818 14.5924C200.078 14.4104 199.33 14.8414 199.099 15.5754C198.464 17.5894 196.941 21.8174 193.871 27.5154L204.898 30.2204L207.87 17.8264C208.058 17.0424 207.582 16.2524 206.806 16.0614Z" fill="#7A3421"/>
<path d="M204.897 30.2206L193.87 27.5156C186.734 40.7596 171.236 61.9506 139.061 81.7876C102.011 104.631 60.0124 99.4406 39.0144 94.6016C32.1334 93.0156 26.9774 100.88 31.0984 106.673C45.1754 126.463 84.4644 151.254 142.051 132.735C217.148 108.585 204.897 30.2206 204.897 30.2206Z" fill="#F2B255"/>
<path d="M211.49 18.3161L205.343 17.8911C204.583 17.8391 203.918 18.3901 203.812 19.1531C203.522 21.2471 202.727 25.6741 200.652 31.8141L211.972 32.5971L212.833 19.8731C212.888 19.0691 212.287 18.3711 211.49 18.3161Z" fill="#8B4128"/>
<path d="M211.974 32.5984L200.654 31.8154C195.832 46.0874 184.094 69.6214 155.693 94.6684C122.988 123.51 80.7258 125.568 59.2218 124.385C52.1758 123.997 48.4058 132.628 53.4348 137.635C70.6138 154.736 113.478 172.462 167.146 144.374C237.132 107.744 211.974 32.5984 211.974 32.5984Z" fill="#FAC46A"/>
<path d="M206.619 34.8115C206.619 34.8115 199.766 91.6135 171.531 112.576" stroke="#DC8041" stroke-width="0.9402" stroke-miterlimit="10" stroke-linecap="round" stroke-linejoin="round"/>
<path d="M197.021 30.2197C197.021 30.2197 160.838 120.817 42.6562 104.53" stroke="#DC8041" stroke-width="0.9402" stroke-miterlimit="10" stroke-linecap="round" stroke-linejoin="round"/>
<path d="M191.389 27.5146C191.389 27.5146 123.868 126.794 23.7695 72.8016" stroke="#DC8041" stroke-width="0.9402" stroke-miterlimit="10" stroke-linecap="round" stroke-linejoin="round"/>
<path d="M323.601 196.929C333.324 200.815 344.418 201.17 353.891 196.817C365.718 191.383 373.559 179.782 379.396 168.044C390.478 145.758 396.575 121.06 409.156 99.604C414.909 89.792 421.947 80.794 429.582 72.3969C432.553 69.1289 441.011 60.3019 437.882 55.0649C434.938 50.1369 424.202 53.77 420.794 56.284C423.532 51.966 425.218 46.97 425.661 41.86C425.802 40.236 425.807 38.537 425.139 37.053C423.512 33.437 418.573 32.6339 414.863 33.9389C411.153 35.2439 408.151 38.016 404.71 39.933C404.338 35.196 402.728 29.622 398.22 28.28C395.235 27.391 391.955 28.841 389.794 31.106C387.633 33.371 386.364 36.333 385.139 39.227C386.091 34.223 386.024 29.023 384.942 24.045C384.563 22.301 384.02 20.509 382.793 19.224C380.075 16.377 375.054 17.341 372.311 20.164C369.569 22.987 368.518 27.023 367.572 30.863C366.664 26.638 364.602 22.674 361.673 19.525C360.656 18.432 359.454 17.393 357.991 17.14C354.232 16.491 351.79 21 350.875 24.744C348.355 35.058 348.002 45.783 346.111 56.233C340.517 87.143 321.985 113.745 307.72 141.66C302.958 150.979 298.527 161.338 300.474 171.641C302.014 179.787 307.465 186.771 314.094 191.653C317.014 193.805 320.225 195.58 323.601 196.929Z" fill="#607034"/>
<path d="M323.601 196.929C333.324 200.815 344.418 201.17 353.891 196.817C365.718 191.383 373.559 179.782 379.396 168.044C390.478 145.758 396.575 121.06 409.156 99.604C414.909 89.792 421.947 80.794 429.582 72.3969C432.553 69.1289 441.011 60.3019 437.882 55.0649C434.938 50.1369 424.202 53.77 420.794 56.284C423.532 51.966 425.218 46.97 425.661 41.86C425.802 40.236 425.807 38.537 425.139 37.053C423.512 33.437 418.573 32.6339 414.863 33.9389C411.153 35.2439 408.151 38.016 404.71 39.933C404.338 35.196 402.728 29.622 398.22 28.28C395.235 27.391 391.955 28.841 389.794 31.106C387.633 33.371 386.364 36.333 385.139 39.227C386.091 34.223 386.024 29.023 384.942 24.045C384.563 22.301 384.02 20.509 382.793 19.224C380.075 16.377 375.054 17.341 372.311 20.164C369.569 22.987 368.518 27.023 367.572 30.863C366.664 26.638 364.602 22.674 361.673 19.525C360.656 18.432 359.454 17.393 357.991 17.14C354.232 16.491 351.79 21 350.875 24.744C348.355 35.058 348.002 45.783 346.111 56.233C340.517 87.143 321.985 113.745 307.72 141.66C302.958 150.979 298.527 161.338 300.474 171.641C302.014 179.787 307.465 186.771 314.094 191.653C317.014 193.805 320.225 195.58 323.601 196.929Z" stroke="#455124" stroke-width="0.9402" stroke-miterlimit="10" stroke-linecap="round" stroke-linejoin="round"/>
<path d="M335.758 120.216C335.758 120.216 348.036 93.722 356.652 63.044C365.268 32.366 360.301 21.677 367.983 19.855C375.665 18.033 378.993 29.957 373.888 58.98C368.783 88.003 349.515 126.944 349.515 126.944" fill="#607034"/>
<path d="M335.758 120.216C335.758 120.216 348.036 93.722 356.652 63.044C365.268 32.366 360.301 21.677 367.983 19.855C375.665 18.033 378.993 29.957 373.888 58.98C368.783 88.003 349.515 126.944 349.515 126.944" stroke="#455124" stroke-width="0.9402" stroke-miterlimit="10" stroke-linecap="round" stroke-linejoin="round"/>
<path d="M377.883 139.886C377.883 139.886 389.752 112.197 407.32 84.5157C424.888 56.8347 436.449 53.4207 432.597 46.1697C428.745 38.9187 417.359 44.4577 398.659 68.2627C379.959 92.0677 363.348 133.721 363.348 133.721" fill="#607034"/>
<path d="M377.883 139.886C377.883 139.886 389.752 112.197 407.32 84.5157C424.888 56.8347 436.449 53.4207 432.597 46.1697C428.745 38.9187 417.359 44.4577 398.659 68.2627C379.959 92.0677 363.348 133.721 363.348 133.721" stroke="#455124" stroke-width="0.9402" stroke-miterlimit="10" stroke-linecap="round" stroke-linejoin="round"/>
<path d="M348.527 125.852C348.527 125.852 370.877 81.8828 376.563 61.5718C382.249 41.2608 382.406 32.7568 388.175 31.5918C393.944 30.4268 397.811 38.9528 396.631 46.6118C405.027 33.7038 411.425 38.3048 413.026 42.5368C414.626 46.7678 410.257 59.5948 393.498 79.7588C376.739 99.9228 365.823 134.971 365.823 134.971L348.488 126.755" fill="#607034"/>
<path d="M348.527 125.852C348.527 125.852 370.877 81.8828 376.563 61.5718C382.249 41.2608 382.406 32.7568 388.175 31.5918C393.944 30.4268 397.811 38.9528 396.631 46.6118C405.027 33.7038 411.425 38.3048 413.026 42.5368C414.626 46.7678 410.257 59.5948 393.498 79.7588C376.739 99.9228 365.823 134.971 365.823 134.971L348.488 126.755" stroke="#455124" stroke-width="0.9402" stroke-miterlimit="10" stroke-linecap="round" stroke-linejoin="round"/>
<path d="M419.992 49.7372C416.14 42.4862 404.754 48.0252 386.054 71.8302C383.765 74.7442 381.508 77.9262 379.308 81.2662C380.046 78.9512 380.72 76.6643 381.294 74.4353C388.637 45.9083 386.245 33.7562 378.446 34.9622C370.646 36.1682 374.767 47.2192 363.796 77.1172C352.825 107.015 338.527 132.452 338.527 132.452L351.719 140.252C351.719 140.252 352.158 139.515 352.912 138.207L365.279 143.452C365.279 143.452 377.148 115.763 394.716 88.0822C412.282 60.4022 423.844 56.9882 419.992 49.7372Z" fill="#607034"/>
<path d="M419.992 49.7372C416.14 42.4862 404.754 48.0252 386.054 71.8302C383.765 74.7442 381.508 77.9262 379.308 81.2662C380.046 78.9512 380.72 76.6643 381.294 74.4353C388.637 45.9083 386.245 33.7562 378.446 34.9622C370.646 36.1682 374.767 47.2192 363.796 77.1172C352.825 107.015 338.527 132.452 338.527 132.452L351.719 140.252C351.719 140.252 352.158 139.515 352.912 138.207L365.279 143.452C365.279 143.452 377.148 115.763 394.716 88.0822C412.282 60.4022 423.844 56.9882 419.992 49.7372Z" stroke="#455124" stroke-width="0.9402" stroke-miterlimit="10" stroke-linecap="round" stroke-linejoin="round"/>
<path d="M379.308 81.2656C379.308 81.2656 363.959 105.91 352.91 138.208" stroke="#455124" stroke-width="0.9402" stroke-miterlimit="10" stroke-linecap="round" stroke-linejoin="round"/>
<path d="M396.634 46.6123C396.634 46.6123 394.06 59.6613 383.434 75.3053" stroke="#455124" stroke-width="0.9402" stroke-miterlimit="10" stroke-linecap="round" stroke-linejoin="round"/>
<path d="M257.81 226.115C261.072 194.166 272.408 82.2841 274.212 53.1821C276.323 19.1241 279.515 9.14909 288.413 21.6241C286.566 8.29009 295.531 -12.4099 301.913 9.76009C304.677 1.95109 316.566 4.86108 312.802 28.3811C317.102 19.8601 330.484 15.4791 321.135 54.0871C313.15 87.0591 283.903 197.377 275.533 228.886C286.18 235.024 292.447 248.43 290.696 259.375C288.521 272.965 274.813 277.607 259.227 275.056C243.641 272.505 232.081 263.726 234.256 250.135C235.991 239.295 245.944 228.677 257.81 226.115Z" fill="#9BAB52"/>
<path d="M278.397 225.913C282.844 196.471 298.337 93.366 301.306 66.494C304.781 35.046 308.183 25.954 315.867 37.914C314.751 25.48 326.133 21.29 328.516 32.045C330.171 15.9 351.163 14.532 338.155 45.286C342.518 37.59 355.108 34.144 344.726 69.475C335.859 99.648 303.847 200.488 294.689 229.288C304.276 235.459 309.483 248.161 307.372 258.219C304.751 270.707 291.848 274.381 277.526 271.306C263.205 268.231 252.889 259.573 255.51 247.085C257.601 237.124 267.292 227.744 278.397 225.913Z" fill="#828E3C"/>
<path d="M288.414 21.624C288.414 21.624 288.414 41.498 279.56 118.288C271.132 191.386 269.254 224.68 269.254 224.68" stroke="#607034" stroke-width="0.9402" stroke-miterlimit="10" stroke-linecap="round" stroke-linejoin="round"/>
<path d="M301.913 9.75977L274.969 215.637" stroke="#607034" stroke-width="0.9402" stroke-miterlimit="10" stroke-linecap="round" stroke-linejoin="round"/>
<path d="M315.868 43.2021C315.868 43.2021 308.285 101.023 297.109 160.014C285.933 219.005 283.227 226.999 283.227 226.999" stroke="#607034" stroke-width="0.9402" stroke-miterlimit="10" stroke-linecap="round" stroke-linejoin="round"/>
<path d="M328.141 34.8809C328.141 34.8809 308.803 133.714 300.006 175.788C291.209 217.862 288.492 226.999 288.492 226.999" stroke="#607034" stroke-width="0.9402" stroke-miterlimit="10" stroke-linecap="round" stroke-linejoin="round"/>
<path d="M336.769 47.3252C336.769 47.3252 316.367 138.89 292.426 226.998" stroke="#607034" stroke-width="0.9402" stroke-miterlimit="10" stroke-linecap="round" stroke-linejoin="round"/>
<path d="M314.752 273.304C362.816 273.304 401.781 233.895 401.781 185.281C401.781 136.667 362.816 97.2578 314.752 97.2578C266.687 97.2578 227.723 136.667 227.723 185.281C227.723 233.895 266.687 273.304 314.752 273.304Z" fill="#667637"/>
<path d="M324.207 125.141C324.207 125.141 329.791 110.554 317.017 107.529C323.802 97.7304 305.925 86.0514 280.867 105.381C283.415 125.141 324.207 125.141 324.207 125.141Z" fill="#667637"/>
<path d="M370.069 120.845C370.069 120.845 364.167 106.669 343.327 99.3674C322.487 92.0644 330.469 110.106 330.469 110.106C330.469 110.106 311.781 112.605 311.781 135.45C311.781 158.295 370.937 141.469 370.069 120.845Z" fill="#576831"/>
<path d="M399.361 171.964C399.361 171.964 398.538 134.378 370.069 112.577C355.191 102.374 356.285 126.43 356.285 126.43C356.285 126.43 340.614 120.416 335.161 139.317C317.391 133.733 304.36 166.38 309.601 188.288C314.842 210.195 390.442 206.329 399.361 171.964Z" fill="#667637"/>
<path d="M321.331 172.394C321.331 172.394 327.473 127.825 320.573 120.846C313.673 113.867 302.526 120.846 302.526 120.846C302.526 120.846 309.392 109.713 305.959 106.241C302.526 102.769 289.36 106.241 289.36 106.241C289.36 106.241 296.156 97.2588 285.538 97.2588C274.92 97.2588 240.504 110.827 249.005 144.403C257.506 177.979 314.045 201.912 314.045 201.912L321.331 172.394Z" fill="#576831"/>
<path d="M299.942 272.028C299.942 272.028 350.906 287.087 390.423 237.258C429.941 187.428 411.762 145.509 400.06 144.472C384.697 143.11 382.628 162.084 382.628 162.084C382.628 162.084 376.139 152.634 365.59 154.781C355.041 156.928 348.49 174.541 348.49 174.541C348.49 174.541 347.04 165.52 333.894 168.957C321.558 172.181 279.52 214.441 299.942 272.028Z" fill="#576831"/>
<path d="M314.751 273.303C314.751 273.303 338.036 205.04 327.926 185.28C317.816 165.52 304.895 175.829 304.895 175.829C304.895 175.829 309.206 143.612 292.275 135.879C275.344 128.147 261.003 142.651 261.003 142.651C261.003 142.651 263.668 110.491 244.12 112.682C226.984 114.604 172.378 270.687 314.751 273.303Z" fill="#667637"/>
<path d="M309.932 275.92C309.932 275.92 339.819 281.504 370.44 260.456C401.061 239.407 380.147 194.067 353.929 209.285C340.326 187 313.878 173.683 292.275 203.753C263.636 174.786 222.679 163.658 215.459 192.941C208.239 222.224 230.271 267.328 309.932 275.92Z" fill="#576831"/>
<path d="M296.283 46.3067C296.283 46.3067 304.392 44.2237 306.452 52.4247C308.512 60.6267 289.893 68.8757 289.893 68.8757C289.893 68.8757 303.177 65.4627 300.512 75.2647C297.846 85.0667 277.701 90.0427 277.701 90.0427C277.701 90.0427 289.794 89.2267 286.451 98.9467C283.108 108.667 252.196 109.4 252.196 109.4C252.196 109.4 238.08 81.5747 244.93 73.9647C251.78 66.3547 256.843 77.4927 256.843 77.4927C256.843 77.4927 251.552 57.2127 258.797 50.1657C266.041 43.1187 269.416 56.5547 269.416 56.5547C269.416 56.5547 267.697 36.0687 275.807 33.9857C283.916 31.9027 285.976 40.1037 285.976 40.1037C285.976 40.1037 293.827 20.8147 301.562 25.4687C309.295 30.1237 296.283 46.3067 296.283 46.3067Z" fill="#667637"/>
<path d="M254.296 109.223C254.296 109.223 246.879 71.7017 255.543 67.5327C264.207 63.3637 265.111 78.8588 265.111 78.8588C265.111 78.8588 263.77 45.8088 273.591 43.9588C283.413 42.1088 281.408 56.8927 281.408 56.8927C281.408 56.8927 297.028 30.3268 305.526 39.4618C314.024 48.5968 295.755 61.4838 295.755 61.4838C295.755 61.4838 307.914 67.0957 288.923 80.9338C300.539 88.5747 289.521 101.071 254.296 109.223Z" stroke="#455124" stroke-width="0.9402" stroke-miterlimit="10"/>
<path d="M155.494 263.442C152.916 269.784 160.225 274.182 164.505 268.864C203.942 219.858 281.902 117.293 256.532 102.029C231.163 86.7643 179.252 205.003 155.494 263.442Z" fill="#E97A43"/>
<path d="M239.125 108.729L251.815 116.785" stroke="#C55E3F" stroke-width="0.9402" stroke-miterlimit="10"/>
<path d="M242.734 117.169L256.519 125.443" stroke="#C55E3F" stroke-width="0.9402" stroke-miterlimit="10"/>
<path d="M231.52 131.064L247.945 141.979" stroke="#C55E3F" stroke-width="0.9402" stroke-miterlimit="10"/>
<path d="M238.716 130.399L230.664 125.096" stroke="#C55E3F" stroke-width="0.9402" stroke-miterlimit="10"/>
<path d="M217.328 146.562L235.248 156.999" stroke="#C55E3F" stroke-width="0.9402" stroke-miterlimit="10"/>
<path d="M233.777 149.727L244.576 155.299" stroke="#C55E3F" stroke-width="0.9402" stroke-miterlimit="10"/>
<path d="M207.754 162.313L220.444 170.369" stroke="#C55E3F" stroke-width="0.9402" stroke-miterlimit="10"/>
<path d="M211.363 170.753L225.147 179.027" stroke="#C55E3F" stroke-width="0.9402" stroke-miterlimit="10"/>
<path d="M200.145 184.648L216.57 195.563" stroke="#C55E3F" stroke-width="0.9402" stroke-miterlimit="10"/>
<path d="M207.341 183.984L199.289 178.681" stroke="#C55E3F" stroke-width="0.9402" stroke-miterlimit="10"/>
<path d="M185.953 200.147L196.661 206.383" stroke="#C55E3F" stroke-width="0.9402" stroke-miterlimit="10"/>
<path d="M202.402 203.311L209.504 208.172" stroke="#C55E3F" stroke-width="0.9402" stroke-miterlimit="10"/>
<path d="M186.09 217.995L195.352 223.698" stroke="#C55E3F" stroke-width="0.9402" stroke-miterlimit="10"/>
<path d="M181.523 220.319L190.462 225.64" stroke="#C55E3F" stroke-width="0.9402" stroke-miterlimit="10"/>
<path d="M173.387 233.979L182.021 239.629" stroke="#C55E3F" stroke-width="0.9402" stroke-miterlimit="10"/>
<path d="M168.105 248.16L173.522 250.402" stroke="#C55E3F" stroke-width="0.9402" stroke-miterlimit="10"/>
<path d="M279.734 22.569C279.734 22.569 287.566 19.593 290.509 27.514C293.452 35.435 275.848 45.714 275.848 45.714C275.848 45.714 288.679 40.838 287.099 50.878C285.52 60.918 266.041 68.114 266.041 68.114C266.041 68.114 277.971 65.952 275.71 75.986C273.449 86.02 242.806 90.202 242.806 90.202C242.806 90.202 225.738 64.125 231.715 55.796C237.692 47.467 243.94 57.972 243.94 57.972C243.94 57.972 236.467 38.407 242.897 30.594C249.327 22.781 254.148 35.758 254.148 35.758C254.148 35.758 250.203 15.59 258.035 12.613C265.867 9.63696 268.81 17.558 268.81 17.558C268.81 17.558 274.506 -2.49004 282.703 1.27196C290.899 5.03196 279.734 22.569 279.734 22.569Z" fill="#667637"/>
<path d="M244.652 89.4132C244.652 89.4132 231.597 53.5002 239.521 48.0282C247.445 42.5562 250.703 57.7252 250.703 57.7252C250.703 57.7252 244.334 25.2812 253.755 21.9202C263.176 18.5592 263.452 33.4792 263.452 33.4792C263.452 33.4792 274.83 4.79217 284.62 12.4912C294.41 20.1902 278.327 35.7752 278.327 35.7752C278.327 35.7752 291.196 39.4212 274.546 56.0592C287.19 61.7932 278.21 75.8592 244.652 89.4132Z" stroke="#576831" stroke-width="0.9402" stroke-miterlimit="10"/>
<path d="M163.517 254.105C161.647 260.696 169.392 264.25 173.065 258.487C206.91 205.376 273.191 94.7294 246.31 82.3924C219.429 70.0554 180.748 193.369 163.517 254.105Z" fill="#C55E3F"/>
<path d="M229.512 91.626L243.031 98.16" stroke="#AD422A" stroke-width="0.9402" stroke-miterlimit="10"/>
<path d="M234.055 99.5918L248.685 106.216" stroke="#AD422A" stroke-width="0.9402" stroke-miterlimit="10"/>
<path d="M224.484 114.696L242.037 123.637" stroke="#AD422A" stroke-width="0.9402" stroke-miterlimit="10"/>
<path d="M231.56 113.201L222.961 108.865" stroke="#AD422A" stroke-width="0.9402" stroke-miterlimit="10"/>
<path d="M212.141 131.735L231.125 140.028" stroke="#AD422A" stroke-width="0.9402" stroke-miterlimit="10"/>
<path d="M228.84 132.973L240.199 137.258" stroke="#AD422A" stroke-width="0.9402" stroke-miterlimit="10"/>
<path d="M204.414 148.49L217.932 155.024" stroke="#AD422A" stroke-width="0.9402" stroke-miterlimit="10"/>
<path d="M208.953 156.456L223.584 163.08" stroke="#AD422A" stroke-width="0.9402" stroke-miterlimit="10"/>
<path d="M199.383 171.56L216.936 180.501" stroke="#AD422A" stroke-width="0.9402" stroke-miterlimit="10"/>
<path d="M206.454 170.065L197.855 165.73" stroke="#AD422A" stroke-width="0.9402" stroke-miterlimit="10"/>
<path d="M187.039 188.599L198.383 193.555" stroke="#AD422A" stroke-width="0.9402" stroke-miterlimit="10"/>
<path d="M203.738 189.838L211.343 193.844" stroke="#AD422A" stroke-width="0.9402" stroke-miterlimit="10"/>
<path d="M189.191 206.314L199.039 210.908" stroke="#AD422A" stroke-width="0.9402" stroke-miterlimit="10"/>
<path d="M184.922 209.152L194.404 213.404" stroke="#AD422A" stroke-width="0.9402" stroke-miterlimit="10"/>
<path d="M178.383 223.664L187.6 228.277" stroke="#AD422A" stroke-width="0.9402" stroke-miterlimit="10"/>
<path d="M174.742 238.364L180.377 239.964" stroke="#AD422A" stroke-width="0.9402" stroke-miterlimit="10"/>
<path d="M250.868 23.3762C250.868 23.3762 258.515 19.9432 261.909 27.6782C265.303 35.4132 248.32 46.7102 248.32 46.7102C248.32 46.7102 260.848 41.0872 259.85 51.2022C258.852 61.3182 239.82 69.6492 239.82 69.6492C239.82 69.6492 251.606 66.7882 249.926 76.9382C248.247 87.0882 217.896 93.0672 217.896 93.0672C217.896 93.0672 199.356 68.0392 204.843 59.3722C210.33 50.7052 217.172 60.8242 217.172 60.8242C217.172 60.8242 208.585 41.7322 214.555 33.5532C220.525 25.3742 226.085 38.0452 226.085 38.0452C226.085 38.0452 220.985 18.1432 228.633 14.7112C236.28 11.2782 239.674 19.0132 239.674 19.0132C239.674 19.0132 244.206 -1.33576 252.605 1.93624C261.004 5.20824 250.868 23.3762 250.868 23.3762Z" fill="#667637"/>
<path d="M216.972 91.7762C216.972 91.7762 203.917 55.8632 211.842 50.3912C219.766 44.9192 223.024 60.0882 223.024 60.0882C223.024 60.0882 216.655 27.6442 226.077 24.2832C235.499 20.9222 235.774 35.8422 235.774 35.8422C235.774 35.8422 247.152 7.15617 256.942 14.8542C266.732 22.5532 250.649 38.1382 250.649 38.1382C250.649 38.1382 263.518 41.7842 246.868 58.4222C259.51 64.1562 250.531 78.2222 216.972 91.7762Z" stroke="#828E3C" stroke-width="0.9402" stroke-miterlimit="10"/>
<path d="M148.18 261.364C146.693 268.054 154.629 271.146 157.964 265.176C188.693 210.161 248.492 95.7985 220.946 85.0655C193.4 74.3325 161.885 199.716 148.18 261.364Z" fill="#E97A43"/>
<path d="M201.516 96.9219L215.47 102.439" stroke="#C55E3F" stroke-width="0.9402" stroke-miterlimit="10"/>
<path d="M206.621 104.53L221.691 110.055" stroke="#C55E3F" stroke-width="0.9402" stroke-miterlimit="10"/>
<path d="M198.168 120.301L216.321 127.921" stroke="#C55E3F" stroke-width="0.9402" stroke-miterlimit="10"/>
<path d="M205.112 118.288L196.223 114.599" stroke="#C55E3F" stroke-width="0.9402" stroke-miterlimit="10"/>
<path d="M187.086 138.208L206.619 145.075" stroke="#C55E3F" stroke-width="0.9402" stroke-miterlimit="10"/>
<path d="M203.832 138.208L215.47 141.641" stroke="#C55E3F" stroke-width="0.9402" stroke-miterlimit="10"/>
<path d="M180.59 155.49L194.545 161.007" stroke="#C55E3F" stroke-width="0.9402" stroke-miterlimit="10"/>
<path d="M185.695 163.098L200.765 168.623" stroke="#C55E3F" stroke-width="0.9402" stroke-miterlimit="10"/>
<path d="M177.242 178.869L195.394 186.489" stroke="#C55E3F" stroke-width="0.9402" stroke-miterlimit="10"/>
<path d="M184.191 176.856L175.301 173.167" stroke="#C55E3F" stroke-width="0.9402" stroke-miterlimit="10"/>
<path d="M166.16 196.775L177.832 200.878" stroke="#C55E3F" stroke-width="0.9402" stroke-miterlimit="10"/>
<path d="M182.906 196.775L190.78 200.209" stroke="#C55E3F" stroke-width="0.9402" stroke-miterlimit="10"/>
<path d="M169.59 214.284L179.743 218.137" stroke="#C55E3F" stroke-width="0.9402" stroke-miterlimit="10"/>
<path d="M165.535 217.43L175.299 220.969" stroke="#C55E3F" stroke-width="0.9402" stroke-miterlimit="10"/>
<path d="M160.066 232.386L169.592 236.306" stroke="#C55E3F" stroke-width="0.9402" stroke-miterlimit="10"/>
<path d="M157.496 247.315L163.232 248.495" stroke="#C55E3F" stroke-width="0.9402" stroke-miterlimit="10"/>
<path d="M166.08 232.386C190.703 232.386 210.664 212.197 210.664 187.293C210.664 162.389 190.703 142.2 166.08 142.2C141.457 142.2 121.496 162.389 121.496 187.293C121.496 212.197 141.457 232.386 166.08 232.386Z" fill="#E97A43"/>
<path d="M171.834 150.07C171.834 151.247 169.014 152.202 165.536 152.202C162.058 152.202 159.238 151.248 159.238 150.07C159.238 148.893 162.058 147.938 165.536 147.938C169.014 147.939 171.834 148.893 171.834 150.07Z" fill="#E97A43"/>
<path d="M143.744 287.365C168.367 287.365 188.328 267.176 188.328 242.272C188.328 217.368 168.367 197.179 143.744 197.179C119.121 197.179 99.1602 217.368 99.1602 242.272C99.1602 267.176 119.121 287.365 143.744 287.365Z" fill="#E97A43"/>
<path d="M149.498 205.05C149.498 206.227 146.678 207.182 143.2 207.182C139.721 207.182 136.902 206.228 136.902 205.05C136.902 203.872 139.722 202.918 143.2 202.918C146.678 202.918 149.498 203.872 149.498 205.05Z" fill="#E97A43"/>
<path d="M141.559 62.8643C138.165 64.6623 126.683 71.9543 133.139 85.5603C146.852 79.6073 142.947 66.4763 141.559 62.8643Z" fill="#667637"/>
<path d="M133.143 89.8787C133.143 89.8787 134.808 78.4877 127.074 70.4727C123.422 74.0767 123.422 74.0767 123.422 74.0767C123.422 74.0767 130.317 77.7057 130.171 89.8427" fill="#42281F"/>
<path d="M110.271 81.5037C114.26 81.5527 117.776 82.2267 120.79 83.1907C127 85.1767 133.62 85.2587 139.876 83.4267C142.912 82.5377 146.443 81.9507 150.432 81.9997C164.204 82.1697 179.354 109.032 153.471 137.333C148.775 142.468 142.1 145.286 135.184 145.2L133 145.173L126.17 145.088L123.986 145.061C117.071 144.975 110.466 141.993 105.895 136.744C80.7039 107.813 96.4988 81.3337 110.271 81.5037Z" fill="#9BAB52"/>
<path d="M91.834 228.049C116.457 228.049 136.418 207.86 136.418 182.956C136.418 158.052 116.457 137.863 91.834 137.863C67.2109 137.863 47.25 158.052 47.25 182.956C47.25 207.86 67.2109 228.049 91.834 228.049Z" fill="#E97A43"/>
<path d="M97.5882 145.734C97.5882 146.911 94.7682 147.866 91.2902 147.866C87.8122 147.866 84.9922 146.912 84.9922 145.734C84.9922 144.557 87.8122 143.602 91.2902 143.602C94.7682 143.602 97.5882 144.557 97.5882 145.734Z" fill="#E97A43"/>
<path d="M156.461 191.734C178.902 191.734 197.094 173.334 197.094 150.637C197.094 127.94 178.902 109.54 156.461 109.54C134.02 109.54 115.828 127.94 115.828 150.637C115.828 173.334 134.02 191.734 156.461 191.734Z" fill="#C55E3F"/>
<path d="M122.719 154.411C123.743 154.13 125.246 156.41 126.077 159.505C126.908 162.599 126.752 165.336 125.728 165.617C124.704 165.898 123.201 163.618 122.37 160.523C121.539 157.428 121.695 154.692 122.719 154.411Z" fill="#EFDECB"/>
<path d="M220.99 215.36C220.99 215.36 226.879 201.789 219.966 189.181C214.223 192.402 214.223 192.402 214.223 192.402C214.223 192.402 221.567 199.275 217.312 214.293" fill="#42281F"/>
<path d="M195.403 197.11C200.339 198.541 204.479 200.584 207.897 202.816C214.94 207.414 223.133 209.788 231.516 209.661C235.584 209.599 240.165 210.083 245.102 211.513C262.144 216.452 271.941 255.005 230.308 281.259C222.754 286.023 213.521 287.23 204.963 284.75L202.26 283.967L193.807 281.517L191.104 280.734C182.546 278.254 175.346 272.284 171.433 264.197C149.864 219.627 178.362 192.172 195.403 197.11Z" fill="#C55E3F"/>
<path d="M90.3049 212.574C90.3049 212.574 92.2699 197.887 82.1909 187.693C77.5469 192.39 77.5469 192.39 77.5469 192.39C77.5469 192.39 86.4779 196.951 86.4779 212.574" fill="#42281F"/>
<path d="M60.7387 202.159C65.8737 202.159 70.4097 202.97 74.3037 204.163C82.3267 206.621 90.8497 206.621 98.8727 204.163C102.767 202.97 107.303 202.159 112.438 202.159C130.166 202.159 150.083 236.491 117.211 273.328C111.246 280.012 102.699 283.745 93.7967 283.745H90.9847H82.1917H79.3797C70.4777 283.745 61.9307 280.012 55.9657 273.328C23.0937 236.491 43.0117 202.159 60.7387 202.159Z" fill="#9BAB52"/>
<path d="M81.2359 99.9173C81.2359 99.9173 78.4419 88.7553 68.2549 84.3633C66.2539 89.1103 66.2539 89.1103 66.2539 89.1103C66.2539 89.1103 73.9989 89.7793 78.4769 101.039" fill="#42281F"/>
<path d="M56.9384 101.081C60.6394 99.5751 64.1414 98.8301 67.2904 98.5481C73.7784 97.9671 79.9204 95.4681 84.9994 91.3431C87.4644 89.3411 90.5004 87.4261 94.2014 85.9211C106.979 80.7221 131.176 99.6271 118.043 135.818C115.66 142.384 110.569 147.582 104.153 150.192L102.126 151.017L95.7884 153.595L93.7624 154.419C87.3464 157.03 80.1154 156.845 73.9004 153.777C39.6474 136.866 44.1614 106.279 56.9384 101.081Z" fill="#E97A43"/>
<path d="M14.8255 175.628L417.812 175.628V125.247L14.8255 125.247V175.628Z" fill="#7A3421"/>
<path d="M14.8255 300.119L417.812 300.119V249.738L14.8255 249.738V300.119Z" fill="#7A3421"/>
<path d="M14.8255 237.874L417.812 237.874V187.493L14.8255 187.493V237.874Z" fill="#7A3421"/>
<path d="M417.81 300.119V109.906C417.81 106.937 415.403 104.53 412.434 104.53H385.984C383.015 104.53 380.609 106.937 380.609 109.906V300.119H417.81Z" fill="#8B4128"/>
<path d="M52.0262 300.119V109.906C52.0262 106.937 49.6192 104.53 46.6502 104.53H20.2002C17.2312 104.53 14.8242 106.937 14.8242 109.906V300.119H52.0262Z" fill="#8B4128"/>
<path d="M56.2383 134.288H239.732" stroke="#8B4128" stroke-width="0.9402" stroke-miterlimit="10"/>
<path d="M61.0742 139.177H244.568" stroke="#8B4128" stroke-width="0.9402" stroke-miterlimit="10"/>
<path d="M100.781 148.49H376.335" stroke="#8B4128" stroke-width="0.9402" stroke-miterlimit="10"/>
<path d="M340.024 166.342H64.625" stroke="#8B4128" stroke-width="0.9402" stroke-miterlimit="10"/>
<path d="M376.334 229.43H192.84" stroke="#8B4128" stroke-width="0.9402" stroke-miterlimit="10"/>
<path d="M371.502 224.541H188.008" stroke="#8B4128" stroke-width="0.9402" stroke-miterlimit="10"/>
<path d="M331.792 215.228H56.2383" stroke="#8B4128" stroke-width="0.9402" stroke-miterlimit="10"/>
<path d="M92.5508 197.377H367.949" stroke="#8B4128" stroke-width="0.9402" stroke-miterlimit="10"/>
<path d="M376.334 288.36H192.84" stroke="#8B4128" stroke-width="0.9402" stroke-miterlimit="10"/>
<path d="M371.502 283.472H188.008" stroke="#8B4128" stroke-width="0.9402" stroke-miterlimit="10"/>
<path d="M325.521 276.591H142.027" stroke="#8B4128" stroke-width="0.9402" stroke-miterlimit="10"/>
<path d="M331.792 262.875H56.2383" stroke="#8B4128" stroke-width="0.9402" stroke-miterlimit="10"/>
<path d="M92.5508 256.308H367.949" stroke="#8B4128" stroke-width="0.9402" stroke-miterlimit="10"/>
<path d="M33.8422 142.414C36.1066 142.414 37.9422 140.557 37.9422 138.267C37.9422 135.977 36.1066 134.12 33.8422 134.12C31.5778 134.12 29.7422 135.977 29.7422 138.267C29.7422 140.557 31.5778 142.414 33.8422 142.414Z" fill="#7A3421"/>
<path d="M33.8422 170.284C36.1066 170.284 37.9422 168.428 37.9422 166.137C37.9422 163.847 36.1066 161.99 33.8422 161.99C31.5778 161.99 29.7422 163.847 29.7422 166.137C29.7422 168.428 31.5778 170.284 33.8422 170.284Z" fill="#7A3421"/>
<path d="M33.8422 203.806C36.1066 203.806 37.9422 201.949 37.9422 199.659C37.9422 197.368 36.1066 195.512 33.8422 195.512C31.5778 195.512 29.7422 197.368 29.7422 199.659C29.7422 201.949 31.5778 203.806 33.8422 203.806Z" fill="#7A3421"/>
<path d="M33.8422 231.676C36.1066 231.676 37.9422 229.819 37.9422 227.529C37.9422 225.239 36.1066 223.382 33.8422 223.382C31.5778 223.382 29.7422 225.239 29.7422 227.529C29.7422 229.819 31.5778 231.676 33.8422 231.676Z" fill="#7A3421"/>
<path d="M33.8422 265.196C36.1066 265.196 37.9422 263.34 37.9422 261.049C37.9422 258.759 36.1066 256.902 33.8422 256.902C31.5778 256.902 29.7422 258.759 29.7422 261.049C29.7422 263.34 31.5778 265.196 33.8422 265.196Z" fill="#7A3421"/>
<path d="M33.8422 293.065C36.1066 293.065 37.9422 291.209 37.9422 288.919C37.9422 286.63 36.1066 284.773 33.8422 284.773C31.5778 284.773 29.7422 286.63 29.7422 288.919C29.7422 291.209 31.5778 293.065 33.8422 293.065Z" fill="#7A3421"/>
<path d="M398.362 142.414C400.626 142.414 402.462 140.557 402.462 138.267C402.462 135.977 400.626 134.12 398.362 134.12C396.097 134.12 394.262 135.977 394.262 138.267C394.262 140.557 396.097 142.414 398.362 142.414Z" fill="#7A3421"/>
<path d="M398.362 170.284C400.626 170.284 402.462 168.428 402.462 166.137C402.462 163.847 400.626 161.99 398.362 161.99C396.097 161.99 394.262 163.847 394.262 166.137C394.262 168.428 396.097 170.284 398.362 170.284Z" fill="#7A3421"/>
<path d="M398.362 203.806C400.626 203.806 402.462 201.949 402.462 199.659C402.462 197.368 400.626 195.512 398.362 195.512C396.097 195.512 394.262 197.368 394.262 199.659C394.262 201.949 396.097 203.806 398.362 203.806Z" fill="#7A3421"/>
<path d="M398.362 231.676C400.626 231.676 402.462 229.819 402.462 227.529C402.462 225.239 400.626 223.382 398.362 223.382C396.097 223.382 394.262 225.239 394.262 227.529C394.262 229.819 396.097 231.676 398.362 231.676Z" fill="#7A3421"/>
<path d="M398.362 265.196C400.626 265.196 402.462 263.34 402.462 261.049C402.462 258.759 400.626 256.902 398.362 256.902C396.097 256.902 394.262 258.759 394.262 261.049C394.262 263.34 396.097 265.196 398.362 265.196Z" fill="#7A3421"/>
<path d="M398.362 293.065C400.626 293.065 402.462 291.209 402.462 288.919C402.462 286.63 400.626 284.773 398.362 284.773C396.097 284.773 394.262 286.63 394.262 288.919C394.262 291.209 396.097 293.065 398.362 293.065Z" fill="#7A3421"/>
<path d="M360.58 128.131C346.278 122.08 336.184 119.352 336.796 121.973C337.438 124.724 349.666 132.459 365.362 140.244C368.459 148.47 371.509 157.335 374.421 166.717C357.34 159.056 344.563 155.271 345.249 158.21C345.946 161.197 360.298 170.057 377.918 178.478C380.171 186.396 382.31 194.615 384.284 203.077C384.329 203.269 384.371 203.46 384.416 203.652C366.568 195.527 352.996 191.421 353.702 194.448C354.406 197.466 369.047 206.477 386.913 214.974C388.646 223.26 390.138 231.371 391.397 239.224C374.28 231.542 361.468 227.743 362.154 230.686C362.827 233.57 376.232 241.93 393.016 250.083C394.151 258.308 395.025 266.188 395.655 273.62C380.687 267.193 369.977 264.226 370.606 266.923C371.209 269.509 382.05 276.498 396.383 283.792C398.237 315.776 395.174 337.397 388.925 338.888C378.218 341.443 362.219 283.96 345.511 212.33C328.803 140.7 317.713 82.0458 328.42 79.4908C334.858 77.9518 347.717 97.0678 360.58 128.131Z" fill="#DC8041"/>
<path d="M386.909 214.973C369.043 206.476 354.402 197.465 353.698 194.447C352.992 191.42 366.564 195.526 384.412 203.651" fill="#DC8041"/>
<path d="M386.909 214.973C369.043 206.476 354.402 197.465 353.698 194.447C352.992 191.42 366.564 195.526 384.412 203.651" stroke="#B8563B" stroke-width="0.9402" stroke-miterlimit="10"/>
<path d="M393.013 250.081C376.229 241.928 362.823 233.568 362.151 230.684C361.465 227.741 374.277 231.54 391.394 239.222" fill="#DC8041"/>
<path d="M393.013 250.081C376.229 241.928 362.823 233.568 362.151 230.684C361.465 227.741 374.277 231.54 391.394 239.222" stroke="#B8563B" stroke-width="0.9402" stroke-miterlimit="10"/>
<path d="M396.381 283.79C382.048 276.496 371.207 269.507 370.604 266.921C369.975 264.224 380.685 267.191 395.653 273.618" fill="#DC8041"/>
<path d="M396.381 283.79C382.048 276.496 371.207 269.507 370.604 266.921C369.975 264.224 380.685 267.191 395.653 273.618" stroke="#B8563B" stroke-width="0.9402" stroke-miterlimit="10"/>
<path d="M365.362 140.243C349.666 132.459 337.438 124.724 336.796 121.972C336.185 119.352 346.278 122.079 360.58 128.13" fill="#DC8041"/>
<path d="M365.362 140.243C349.666 132.459 337.438 124.724 336.796 121.972C336.185 119.352 346.278 122.079 360.58 128.13" stroke="#B8563B" stroke-width="0.9402" stroke-miterlimit="10"/>
<path d="M377.918 178.477C360.298 170.056 345.946 161.196 345.249 158.209C344.563 155.27 357.34 159.055 374.421 166.716" fill="#DC8041"/>
<path d="M377.918 178.477C360.298 170.056 345.946 161.196 345.249 158.209C344.563 155.27 357.34 159.055 374.421 166.716" stroke="#B8563B" stroke-width="0.9402" stroke-miterlimit="10"/>
<path d="M382.592 118.523C369.244 110.548 359.615 106.448 359.865 109.128C360.128 111.943 371.194 121.298 385.688 131.184C387.642 139.761 389.463 148.966 391.077 158.663C375.194 148.708 363.05 143.189 363.331 146.195C363.617 149.25 376.634 160.015 392.948 170.797C394.107 178.952 395.113 187.39 395.923 196.046C395.941 196.242 395.958 196.437 395.976 196.634C379.396 186.113 366.508 180.166 366.797 183.262C367.086 186.349 380.368 197.303 396.915 208.194C397.51 216.642 397.889 224.883 398.074 232.836C382.159 222.855 369.981 217.317 370.263 220.327C370.539 223.277 382.686 233.415 398.208 243.817C398.218 252.121 398.017 260.048 397.635 267.497C383.678 259.057 373.471 254.635 373.729 257.393C373.976 260.038 383.768 268.463 396.979 277.674C394.484 309.613 388.523 330.606 382.13 331.218C371.178 332.266 363.113 273.109 356.262 199.839C349.41 126.569 346.367 66.9321 357.319 65.8841C363.907 65.2541 374.057 85.9711 382.592 118.523Z" fill="#C16C33"/>
<path d="M396.916 208.194C380.369 197.302 367.086 186.348 366.798 183.262C366.508 180.166 379.397 186.113 395.977 196.634" fill="#C16C33"/>
<path d="M396.916 208.194C380.369 197.302 367.086 186.348 366.798 183.262C366.508 180.166 379.397 186.113 395.977 196.634" stroke="#8B4128" stroke-width="0.9402" stroke-miterlimit="10"/>
<path d="M398.208 243.817C382.686 233.416 370.539 223.278 370.263 220.327C369.982 217.317 382.159 222.855 398.074 232.836" fill="#C16C33"/>
<path d="M398.208 243.817C382.686 233.416 370.539 223.278 370.263 220.327C369.982 217.317 382.159 222.855 398.074 232.836" stroke="#8B4128" stroke-width="0.9402" stroke-miterlimit="10"/>
<path d="M396.977 277.674C383.766 268.463 373.974 260.039 373.727 257.393C373.469 254.634 383.676 259.057 397.633 267.497" fill="#C16C33"/>
<path d="M396.977 277.674C383.766 268.463 373.974 260.039 373.727 257.393C373.469 254.634 383.676 259.057 397.633 267.497" stroke="#8B4128" stroke-width="0.9402" stroke-miterlimit="10"/>
<path d="M385.687 131.184C371.193 121.299 360.127 111.943 359.864 109.128C359.613 106.448 369.243 110.547 382.591 118.523" fill="#C16C33"/>
<path d="M385.687 131.184C371.193 121.299 360.127 111.943 359.864 109.128C359.613 106.448 369.243 110.547 382.591 118.523" stroke="#8B4128" stroke-width="0.9402" stroke-miterlimit="10"/>
<path d="M392.95 170.797C376.636 160.015 363.619 149.25 363.333 146.195C363.052 143.189 375.195 148.708 391.079 158.663" fill="#C16C33"/>
<path d="M392.95 170.797C376.636 160.015 363.619 149.25 363.333 146.195C363.052 143.189 375.195 148.708 391.079 158.663" stroke="#8B4128" stroke-width="0.9402" stroke-miterlimit="10"/>
<path d="M418.279 150.411C401.911 146.782 390.009 145.138 390.173 146.696C390.345 148.332 403.759 152.956 421.463 157.618C423.439 162.511 425.212 167.785 426.696 173.365C407.245 168.773 392.256 166.494 392.44 168.241C392.627 170.017 408.421 175.314 428.366 180.359C429.365 185.068 430.154 189.955 430.683 194.986C430.695 195.1 430.705 195.214 430.716 195.328C410.42 190.459 394.516 187.987 394.705 189.787C394.894 191.581 411.01 196.969 431.245 202.059C431.516 206.985 431.526 211.806 431.308 216.474C411.818 211.87 396.788 209.582 396.972 211.332C397.152 213.047 411.884 218.045 430.855 222.928C430.397 227.816 429.695 232.499 428.791 236.915C411.682 233.062 399.07 231.273 399.239 232.877C399.401 234.415 411.262 238.592 427.387 242.959C422.433 261.961 413.731 274.796 405.641 275.667C391.781 277.159 384.971 242.976 380.491 200.389C376.011 157.801 375.556 122.935 389.416 121.443C397.754 120.543 409.369 131.929 418.279 150.411Z" fill="#F2B255"/>
<path d="M431.245 202.057C411.011 196.967 394.894 191.579 394.705 189.785C394.516 187.985 410.42 190.457 430.716 195.326" fill="#F2B255"/>
<path d="M431.245 202.057C411.011 196.967 394.894 191.579 394.705 189.785C394.516 187.985 410.42 190.457 430.716 195.326" stroke="#E97A43" stroke-width="0.9402" stroke-miterlimit="10"/>
<path d="M430.857 222.925C411.887 218.042 397.155 213.044 396.974 211.329C396.79 209.579 411.821 211.867 431.31 216.471" fill="#F2B255"/>
<path d="M430.857 222.925C411.887 218.042 397.155 213.044 396.974 211.329C396.79 209.579 411.821 211.867 431.31 216.471" stroke="#E97A43" stroke-width="0.9402" stroke-miterlimit="10"/>
<path d="M427.388 242.957C411.263 238.59 399.402 234.412 399.24 232.875C399.071 231.271 411.683 233.06 428.792 236.913" fill="#F2B255"/>
<path d="M427.388 242.957C411.263 238.59 399.402 234.412 399.24 232.875C399.071 231.271 411.683 233.06 428.792 236.913" stroke="#E97A43" stroke-width="0.9402" stroke-miterlimit="10"/>
<path d="M421.464 157.617C403.76 152.955 390.346 148.331 390.174 146.695C390.01 145.137 401.912 146.781 418.28 150.41" fill="#F2B255"/>
<path d="M421.464 157.617C403.76 152.955 390.346 148.331 390.174 146.695C390.01 145.137 401.912 146.781 418.28 150.41" stroke="#E97A43" stroke-width="0.9402" stroke-miterlimit="10"/>
<path d="M428.365 180.359C408.419 175.315 392.626 170.017 392.439 168.241C392.255 166.494 407.245 168.773 426.695 173.365" fill="#F2B255"/>
<path d="M428.365 180.359C408.419 175.315 392.626 170.017 392.439 168.241C392.255 166.494 407.245 168.773 426.695 173.365" stroke="#E97A43" stroke-width="0.9402" stroke-miterlimit="10"/>
<path d="M429.809 245.593C420.063 244.133 413.27 234.873 414.713 225.016L424.989 154.843C426.433 144.986 435.588 138.115 445.334 139.575C455.08 141.035 461.873 150.295 460.43 160.152L450.154 230.325C448.711 240.182 439.556 247.053 429.809 245.593Z" fill="#DC8041"/>
<path d="M427.174 166.602C426.935 168.233 433.326 168.015 441.449 166.115C449.571 164.215 456.35 161.352 456.589 159.721C456.828 158.09 450.437 158.308 442.314 160.208C434.191 162.108 427.413 164.971 427.174 166.602Z" stroke="#A14A2E" stroke-width="0.9402" stroke-miterlimit="10"/>
<path d="M425.018 181.313C424.779 182.944 431.17 182.726 439.293 180.826C447.416 178.926 454.194 176.063 454.433 174.432C454.672 172.801 448.281 173.019 440.158 174.919C432.035 176.819 425.257 179.682 425.018 181.313Z" stroke="#A14A2E" stroke-width="0.9402" stroke-miterlimit="10"/>
<path d="M422.866 196.025C422.627 197.656 429.018 197.438 437.141 195.538C445.264 193.638 452.042 190.775 452.281 189.144C452.52 187.513 446.129 187.731 438.006 189.632C429.883 191.531 423.104 194.394 422.866 196.025Z" stroke="#A14A2E" stroke-width="0.9402" stroke-miterlimit="10"/>
<path d="M420.71 210.736C420.471 212.367 426.862 212.149 434.985 210.249C443.107 208.349 449.886 205.486 450.125 203.855C450.364 202.224 443.973 202.442 435.85 204.342C427.727 206.242 420.949 209.105 420.71 210.736Z" stroke="#A14A2E" stroke-width="0.9402" stroke-miterlimit="10"/>
<path d="M418.557 225.446C418.318 227.077 424.709 226.859 432.832 224.959C440.955 223.059 447.733 220.196 447.972 218.565C448.211 216.934 441.82 217.152 433.697 219.052C425.574 220.952 418.796 223.815 418.557 225.446Z" stroke="#A14A2E" stroke-width="0.9402" stroke-miterlimit="10"/>
<path d="M456.473 196.4L452.834 192.938L449.412 196.4H448.979L445.556 192.938L442.133 196.4H441.701L438.278 192.938L434.855 196.4H434.423L431 192.938L427.577 196.4H427.145L423.722 192.938L420.299 196.4H419.866L416.443 192.938L413.021 196.4H412.588L409.165 192.938L405.743 196.4H405.31L401.887 192.938L398.464 196.4H398.032L394.609 192.938L391.186 196.4H390.753L387.331 192.938L383.908 196.4H383.475L380.053 192.938L376.63 196.4H376.197L372.774 192.938L369.352 196.4H368.919L365.496 192.938L362.073 196.4H361.641L358.218 192.938L354.795 196.4H354.363L350.94 192.938L347.517 196.4H347.084L343.662 192.938L340.239 196.4H340.023V343.331H456.473V196.4Z" fill="#FAC46A"/>
<path d="M347.52 196.4V343.331" stroke="#F2B255" stroke-width="0.9402" stroke-miterlimit="10" stroke-linecap="round" stroke-linejoin="round"/>
<path d="M354.785 196.4V343.331" stroke="#F2B255" stroke-width="0.9402" stroke-miterlimit="10" stroke-linecap="round" stroke-linejoin="round"/>
<path d="M362.047 196.4V343.331" stroke="#F2B255" stroke-width="0.9402" stroke-miterlimit="10" stroke-linecap="round" stroke-linejoin="round"/>
<path d="M369.309 196.4V343.331" stroke="#F2B255" stroke-width="0.9402" stroke-miterlimit="10" stroke-linecap="round" stroke-linejoin="round"/>
<path d="M376.574 196.4V343.331" stroke="#F2B255" stroke-width="0.9402" stroke-miterlimit="10" stroke-linecap="round" stroke-linejoin="round"/>
<path d="M383.836 196.4V343.331" stroke="#F2B255" stroke-width="0.9402" stroke-miterlimit="10" stroke-linecap="round" stroke-linejoin="round"/>
<path d="M391.102 196.4V343.331" stroke="#F2B255" stroke-width="0.9402" stroke-miterlimit="10" stroke-linecap="round" stroke-linejoin="round"/>
<path d="M398.363 196.4V343.331" stroke="#F2B255" stroke-width="0.9402" stroke-miterlimit="10" stroke-linecap="round" stroke-linejoin="round"/>
<path d="M405.629 196.4V343.331" stroke="#F2B255" stroke-width="0.9402" stroke-miterlimit="10" stroke-linecap="round" stroke-linejoin="round"/>
<path d="M412.891 196.4V343.331" stroke="#F2B255" stroke-width="0.9402" stroke-miterlimit="10" stroke-linecap="round" stroke-linejoin="round"/>
<path d="M420.156 196.4V343.331" stroke="#F2B255" stroke-width="0.9402" stroke-miterlimit="10" stroke-linecap="round" stroke-linejoin="round"/>
<path d="M427.418 196.4V343.331" stroke="#F2B255" stroke-width="0.9402" stroke-miterlimit="10" stroke-linecap="round" stroke-linejoin="round"/>
<path d="M434.684 196.4V343.331" stroke="#F2B255" stroke-width="0.9402" stroke-miterlimit="10" stroke-linecap="round" stroke-linejoin="round"/>
<path d="M441.945 196.4V343.331" stroke="#F2B255" stroke-width="0.9402" stroke-miterlimit="10" stroke-linecap="round" stroke-linejoin="round"/>
<path d="M449.211 196.4V343.331" stroke="#F2B255" stroke-width="0.9402" stroke-miterlimit="10" stroke-linecap="round" stroke-linejoin="round"/>
<path d="M309.713 96.3975H300.931C298.911 96.3975 297.273 94.7595 297.273 92.7395V71.5955C297.273 69.5755 298.911 67.9375 300.931 67.9375H309.713C311.733 67.9375 313.371 69.5755 313.371 71.5955V92.7395C313.371 94.7605 311.733 96.3975 309.713 96.3975Z" fill="#C16C33"/>
<path d="M315.633 140.843V84.04H305.321H295.009V140.843L275.969 176.415C267.034 193.108 262.355 211.79 262.355 230.772V337.372C262.355 346.24 269.463 353.428 278.23 353.428H305.321H332.413C341.181 353.428 348.288 346.239 348.288 337.372V230.772C348.288 211.79 343.609 193.108 334.674 176.415L315.633 140.843Z" fill="#42281F"/>
<path d="M348.289 310.886H286.375C283.076 310.886 280.402 308.181 280.402 304.845V236.966C280.402 233.63 283.076 230.925 286.375 230.925H348.289" stroke="#C16C33" stroke-width="0.9402" stroke-miterlimit="10"/>
<path d="M348.287 302.953H290.335C289.043 302.953 287.996 301.894 287.996 300.587V241.222C287.996 239.916 289.043 238.856 290.335 238.856H348.287" stroke="#DC8041" stroke-width="0.9402" stroke-miterlimit="10"/>
<path d="M294.292 87.2644H316.352C318.115 87.2644 319.558 85.8214 319.558 84.0584V84.0224C319.558 82.2594 318.115 80.8164 316.352 80.8164H294.292C292.529 80.8164 291.086 82.2594 291.086 84.0224V84.0584C291.086 85.8214 292.529 87.2644 294.292 87.2644Z" fill="#42281F"/>
<path d="M297.273 87.7314H313.371" stroke="#7A3421" stroke-width="0.9402" stroke-miterlimit="10" stroke-linecap="round" stroke-linejoin="round"/>
<path d="M297.273 139.929H313.371" stroke="#7A3421" stroke-width="0.9402" stroke-miterlimit="10" stroke-linecap="round" stroke-linejoin="round"/>
<path d="M267.355 204.601H344.07" stroke="#7A3421" stroke-width="0.9402" stroke-miterlimit="10" stroke-linecap="round" stroke-linejoin="round"/>
<path d="M462.113 353.427H404.417C399.313 353.427 395.137 349.251 395.137 344.147V250.429C395.137 245.325 399.313 241.148 404.417 241.148H462.113C467.217 241.148 471.393 245.324 471.393 250.429V344.147C471.394 349.251 467.217 353.427 462.113 353.427Z" fill="#576831"/>
<path d="M407.807 241.148H458.724C459.901 241.148 460.855 240.194 460.855 239.017V235.917C460.855 234.74 459.901 233.786 458.724 233.786H407.807C406.63 233.786 405.676 234.74 405.676 235.917V239.017C405.676 240.194 406.63 241.148 407.807 241.148Z" fill="#42281F"/>
<path d="M407.585 320.296H458.945C462.411 320.296 465.222 317.486 465.222 314.02V280.557C465.222 277.091 462.412 274.28 458.945 274.28H407.585C404.119 274.28 401.309 277.09 401.309 280.557V314.02C401.309 317.486 404.119 320.296 407.585 320.296Z" stroke="#9BAB52" stroke-width="0.9402" stroke-miterlimit="10"/>
<path d="M409.173 363.556H364.643C360.703 363.556 357.48 360.333 357.48 356.393V302.397C357.48 298.458 360.703 295.234 364.643 295.234H409.173C413.112 295.234 416.336 298.457 416.336 302.397V356.393C416.335 360.333 413.112 363.556 409.173 363.556Z" fill="#E97A43"/>
<path d="M367.266 295.236H406.547C407.46 295.236 408.201 294.496 408.201 293.582V291.207C408.201 290.294 407.461 289.553 406.547 289.553H367.266C366.353 289.553 365.613 290.293 365.613 291.207V293.582C365.613 294.495 366.353 295.236 367.266 295.236Z" fill="#8B4128"/>
<path d="M368.821 345.786H404.999C408.63 345.786 411.574 342.842 411.574 339.211V316.846C411.574 313.215 408.63 310.271 404.999 310.271H368.821C365.19 310.271 362.246 313.215 362.246 316.846V339.211C362.246 342.842 365.189 345.786 368.821 345.786Z" stroke="#C55E3F" stroke-width="0.9402" stroke-miterlimit="10"/>
<path d="M37.372 282.76L38.329 242.273H28.519H19.013H9.203L10.16 282.76C4.549 282.76 0 287.361 0 293.036V344.939C0 350.058 4.141 354.247 9.203 354.247H38.328C43.39 354.247 47.531 350.058 47.531 344.939V293.036C47.532 287.36 42.983 282.76 37.372 282.76Z" fill="#FAC46A"/>
<path d="M42.192 300.79H6.25V334.749H42.192V300.79Z" stroke="#E97A43" stroke-width="0.9402" stroke-miterlimit="10"/>
<path d="M9.39875 245.345H38.1368C39.8168 245.345 41.1908 243.971 41.1908 242.291V242.256C41.1908 240.576 39.8168 239.201 38.1368 239.201H9.39875C7.71875 239.201 6.34375 240.576 6.34375 242.256V242.291C6.34475 243.97 7.71875 245.345 9.39875 245.345Z" fill="#42281F"/>
<path d="M12.3828 282.76H35.1538" stroke="#DC8041" stroke-width="0.9402" stroke-miterlimit="10" stroke-linecap="round" stroke-linejoin="round"/>
<path d="M228.969 359.692C229.018 367.541 246.436 370.017 267.902 369.88C289.368 369.743 306.753 367.044 306.704 359.195C306.655 351.346 289.214 345.095 267.748 345.232C246.282 345.369 228.92 351.843 228.969 359.692Z" fill="#C16C33"/>
<path d="M300.527 358.097C300.527 358.097 301.983 359.041 301.994 360.947C302.006 362.853 298.097 363.611 295.471 360.989C292.845 358.367 287.862 361.257 285.893 359.291C283.924 357.325 289.49 355.016 292.389 354.998C295.288 354.98 294.993 353.954 300.527 358.097Z" fill="#42281F"/>
<path d="M252.711 346.98C252.711 346.98 251.267 347.796 251.277 349.409C251.287 351.022 255.205 351.617 257.8 349.367C260.395 347.117 265.411 349.504 267.358 347.817C269.304 346.13 263.712 344.242 260.812 344.261C257.912 344.279 258.197 343.409 252.711 346.98Z" fill="#42281F"/>
<path d="M276.053 365.321C272.781 366.022 269.188 365.075 267.548 362.773C267.194 362.276 266.964 361.748 266.961 361.212C266.946 358.801 271.95 362.386 273.494 361.17C275.038 359.955 280.343 359.415 280.362 362.492C280.372 364.011 278.227 364.855 276.053 365.321Z" fill="#42281F"/>
<path d="M284.586 346.326C287.858 345.73 291.45 346.527 293.088 348.474C293.442 348.895 293.671 349.341 293.673 349.795C293.686 351.835 288.685 348.807 287.14 349.837C285.595 350.867 280.289 351.329 280.273 348.725C280.266 347.439 282.412 346.722 284.586 346.326Z" fill="#42281F"/>
<path d="M236.876 355.497C236.876 355.497 241.632 352.806 243.513 354.903C245.394 357 250.844 358.613 248.693 360.382C246.542 362.151 242.23 358.067 238.079 360.673C233.927 363.279 229.83 358.064 236.876 355.497Z" fill="#42281F"/>
<path d="M264.803 354.341C264.803 354.341 261.349 353.307 260.438 354.936C259.527 356.565 256.245 358.409 257.887 359.232C259.529 360.055 261.721 356.787 264.773 357.856C267.826 358.925 269.716 354.959 264.803 354.341Z" fill="#42281F"/>
<path d="M306.354 345.719C307.003 353.541 289.875 357.59 268.484 359.405C247.093 361.22 229.538 360.112 228.889 352.291C228.24 344.469 245.056 336.658 266.447 334.843C287.838 333.028 305.705 337.898 306.354 345.719Z" fill="#DC8041"/>
<path d="M234.943 350.638C234.943 350.638 233.577 351.71 233.735 353.609C233.893 355.508 237.853 355.908 240.235 353.058C242.617 350.208 247.837 352.634 249.623 350.496C251.409 348.358 245.66 346.565 242.771 346.81C239.882 347.056 240.086 346.009 234.943 350.638Z" fill="#42281F"/>
<path d="M281.578 335.218C281.578 335.218 283.089 335.899 283.223 337.506C283.357 339.113 279.507 340.062 276.723 338.058C273.938 336.053 269.155 338.887 267.066 337.383C264.977 335.879 270.38 333.491 273.269 333.246C276.158 333.001 275.797 332.16 281.578 335.218Z" fill="#42281F"/>
<path d="M259.962 355.608C263.283 356.009 266.777 354.739 268.206 352.298C268.515 351.77 268.696 351.224 268.652 350.69C268.453 348.287 263.788 352.312 262.142 351.242C260.496 350.172 255.165 350.117 255.419 353.182C255.544 354.696 257.755 355.342 259.962 355.608Z" fill="#42281F"/>
<path d="M249.771 337.463C246.459 337.166 242.952 338.288 241.494 340.375C241.179 340.826 240.991 341.292 241.028 341.743C241.197 343.776 245.908 340.305 247.538 341.191C249.168 342.076 254.493 342.054 254.278 339.46C254.172 338.179 251.972 337.66 249.771 337.463Z" fill="#42281F"/>
<path d="M298.108 342.259C298.108 342.259 293.132 340.011 291.445 342.271C289.758 344.53 284.474 346.633 286.773 348.198C289.072 349.764 293.004 345.304 297.37 347.523C301.737 349.742 305.353 344.176 298.108 342.259Z" fill="#42281F"/>
<path d="M270.188 343.65C270.188 343.65 273.536 342.306 274.588 343.846C275.64 345.386 279.072 346.923 277.51 347.892C275.948 348.861 273.475 345.805 270.53 347.147C267.585 348.489 265.35 344.711 270.188 343.65Z" fill="#42281F"/>
<path d="M306.49 337.722C306.49 345.571 289.088 348.159 267.622 348.159C246.156 348.159 228.754 345.571 228.754 337.722C228.754 329.873 246.156 323.51 267.622 323.51C289.088 323.51 306.49 329.874 306.49 337.722Z" fill="#C16C33"/>
<path d="M234.922 336.586C234.922 336.586 233.473 337.539 233.473 339.445C233.473 341.351 237.387 342.084 239.996 339.445C242.605 336.806 247.606 339.665 249.563 337.686C251.52 335.707 245.939 333.434 243.04 333.434C240.14 333.434 240.43 332.408 234.922 336.586Z" fill="#42281F"/>
<path d="M282.669 325.162C282.669 325.162 284.118 325.969 284.118 327.581C284.118 329.194 280.204 329.814 277.595 327.581C274.986 325.348 269.985 327.767 268.028 326.092C266.071 324.417 271.652 322.494 274.551 322.494C277.45 322.494 277.16 321.626 282.669 325.162Z" fill="#42281F"/>
<path d="M259.44 343.653C262.716 344.333 266.303 343.363 267.929 341.051C268.28 340.551 268.506 340.022 268.506 339.486C268.506 337.075 263.524 340.692 261.973 339.486C260.421 338.28 255.113 337.775 255.113 340.851C255.114 342.371 257.264 343.202 259.44 343.653Z" fill="#42281F"/>
<path d="M250.789 324.712C247.513 324.136 243.926 324.957 242.3 326.914C241.949 327.337 241.723 327.785 241.723 328.238C241.723 330.278 246.705 327.218 248.256 328.238C249.807 329.258 255.116 329.686 255.116 327.082C255.116 325.797 252.966 325.094 250.789 324.712Z" fill="#42281F"/>
<path d="M298.56 333.578C298.56 333.578 293.788 330.917 291.919 333.026C290.051 335.135 284.611 336.783 286.773 338.538C288.935 340.292 293.221 336.181 297.389 338.761C301.557 341.341 305.621 336.1 298.56 333.578Z" fill="#42281F"/>
<path d="M270.623 332.602C270.623 332.602 274.071 331.545 274.992 333.169C275.913 334.793 279.206 336.615 277.57 337.449C275.933 338.283 273.721 335.028 270.675 336.117C267.629 337.204 265.714 333.251 270.623 332.602Z" fill="#42281F"/>
<path d="M306.354 324.189C307.003 332.01 289.875 336.06 268.484 337.875C247.093 339.69 229.538 338.582 228.889 330.761C228.24 322.939 245.056 315.128 266.447 313.313C287.838 311.498 305.705 316.367 306.354 324.189Z" fill="#DC8041"/>
<path d="M234.943 329.106C234.943 329.106 233.577 330.178 233.735 332.077C233.893 333.976 237.853 334.376 240.235 331.526C242.617 328.676 247.837 331.102 249.623 328.964C251.409 326.826 245.66 325.033 242.771 325.279C239.882 325.524 240.086 324.477 234.943 329.106Z" fill="#42281F"/>
<path d="M281.578 313.686C281.578 313.686 283.089 314.367 283.223 315.974C283.357 317.581 279.507 318.531 276.723 316.526C273.938 314.521 269.155 317.354 267.066 315.85C264.977 314.346 270.38 311.958 273.269 311.713C276.158 311.469 275.797 310.628 281.578 313.686Z" fill="#42281F"/>
<path d="M259.962 334.077C263.283 334.478 266.777 333.208 268.206 330.767C268.515 330.24 268.696 329.693 268.652 329.159C268.453 326.756 263.788 330.781 262.142 329.711C260.496 328.641 255.165 328.586 255.419 331.651C255.544 333.165 257.755 333.811 259.962 334.077Z" fill="#42281F"/>
<path d="M249.771 315.934C246.459 315.637 242.952 316.758 241.494 318.846C241.179 319.297 240.991 319.763 241.028 320.214C241.197 322.247 245.908 318.776 247.538 319.662C249.168 320.547 254.493 320.525 254.278 317.931C254.172 316.649 251.972 316.131 249.771 315.934Z" fill="#42281F"/>
<path d="M298.108 320.73C298.108 320.73 293.132 318.482 291.445 320.742C289.758 323.001 284.474 325.104 286.773 326.669C289.072 328.235 293.004 323.775 297.37 325.994C301.737 328.212 305.353 322.646 298.108 320.73Z" fill="#42281F"/>
<path d="M270.188 322.118C270.188 322.118 273.536 320.774 274.588 322.314C275.64 323.854 279.072 325.391 277.51 326.361C275.948 327.33 273.475 324.274 270.53 325.616C267.585 326.958 265.35 323.18 270.188 322.118Z" fill="#42281F"/>
<path opacity="0.5" d="M287.663 292.338C280.423 292.338 268.424 292.338 268.424 292.338C268.424 292.338 256.426 292.338 249.185 292.338C225.587 307.366 220.144 341.741 218.989 360.766C218.552 367.961 224.175 374.043 231.302 374.043H268.424H305.546C312.673 374.043 318.296 367.961 317.859 360.766C316.704 341.741 311.261 307.366 287.663 292.338Z" fill="white"/>
<path opacity="0.5" d="M283.11 261.811C272.973 264.458 268.422 264.458 268.422 264.458C268.422 264.458 263.871 264.458 253.734 261.811C253.583 261.779 253.433 261.749 253.284 261.72C243.6 259.816 236.307 270.499 241.419 279.033L249.389 292.339H268.421H287.453L295.423 279.033C300.535 270.499 293.242 259.816 283.558 261.72C283.411 261.749 283.261 261.779 283.11 261.811Z" fill="white"/>
<path d="M289.733 293.176H247.117C246.66 293.176 246.289 292.801 246.289 292.338C246.289 291.875 246.66 291.501 247.117 291.501H289.733C290.19 291.501 290.561 291.876 290.561 292.338C290.561 292.8 290.191 293.176 289.733 293.176Z" fill="#576831"/>
<path d="M256.012 298.616C251.693 298.616 249.363 294.743 249.363 291.098C249.363 289.233 249.938 287.504 250.981 286.226C252.188 284.748 253.928 283.968 256.012 283.968C264.457 283.968 268.951 291.591 269.138 291.916C269.321 292.234 269.278 292.635 269.032 292.906C268.818 293.139 263.733 298.616 256.012 298.616ZM256.012 285.644C254.438 285.644 253.14 286.215 252.258 287.295C251.459 288.272 251.019 289.622 251.019 291.099C251.019 294.003 252.735 296.942 256.012 296.942C261.768 296.942 266.004 293.483 267.356 292.223C266.203 290.562 262.26 285.644 256.012 285.644Z" fill="#576831"/>
<path d="M280.837 298.616C273.115 298.616 268.029 293.139 267.816 292.906C267.57 292.635 267.527 292.234 267.71 291.916C267.898 291.592 272.391 283.968 280.838 283.968C282.922 283.968 284.662 284.749 285.869 286.226C286.912 287.503 287.486 289.233 287.486 291.098C287.485 294.743 285.155 298.616 280.837 298.616ZM269.491 292.22C270.847 293.48 275.098 296.941 280.837 296.941C284.114 296.941 285.829 294.002 285.829 291.098C285.829 289.621 285.389 288.271 284.591 287.294C283.709 286.214 282.41 285.643 280.837 285.643C274.568 285.644 270.64 290.558 269.491 292.22Z" fill="#576831"/>
<path d="M271.558 328.118C271.101 328.118 270.73 327.743 270.73 327.28C270.73 327.1 270.699 310.44 268.231 295.853C265.723 305.18 265.529 314.7 265.527 314.807C265.519 315.27 265.098 315.663 264.685 315.63C264.228 315.622 263.863 315.241 263.871 314.778C263.873 314.656 264.121 302.533 267.639 292.069C267.758 291.711 268.106 291.474 268.475 291.502C268.849 291.526 269.16 291.8 269.235 292.171C272.351 307.592 272.387 327.086 272.387 327.281C272.386 327.743 272.016 328.118 271.558 328.118Z" fill="#576831"/>
<path d="M169.02 227.426H166.003V154.44H96.0014V227.426H92.9844V151.388H169.02V227.426Z" fill="#42281F"/>
<path d="M37.6328 334.758V153.622C37.6328 151.486 39.3638 149.755 41.4998 149.755C43.6358 149.755 45.3668 151.486 45.3668 153.622V334.758C45.3668 336.894 43.6358 338.625 41.4998 338.625C39.3638 338.625 37.6328 336.893 37.6328 334.758Z" fill="#42281F"/>
<path d="M216.637 334.758V153.622C216.637 151.486 218.368 149.755 220.504 149.755C222.64 149.755 224.371 151.486 224.371 153.622V334.758C224.371 336.894 222.64 338.625 220.504 338.625C218.368 338.625 216.637 336.893 216.637 334.758Z" fill="#42281F"/>
<path d="M221.601 149.755H40.4038C38.8738 149.755 37.6328 150.995 37.6328 152.525V157.577H224.371V152.525C224.372 150.995 223.131 149.755 221.601 149.755Z" fill="#E97A43"/>
<path d="M49.3029 188.981H25.9609L37.6319 157.577H58.3799L49.3029 188.981Z" fill="#FAC46A"/>
<path d="M25.9609 188.981C25.9609 188.981 26.4009 200.785 37.6319 200.785C48.8629 200.785 49.3029 188.981 49.3029 188.981H25.9609Z" fill="#FFCD85"/>
<path d="M236.041 188.981H212.699L203.621 157.577H224.37L236.041 188.981Z" fill="#FAC46A"/>
<path d="M212.699 188.981C212.699 188.981 213.139 200.785 224.37 200.785C235.601 200.785 236.041 188.981 236.041 188.981H212.699Z" fill="#FFCD85"/>
<path d="M72.6467 188.981H49.3047L58.3817 157.577H79.1307L72.6467 188.981Z" fill="#EAD5C7"/>
<path d="M49.3047 188.981C49.3047 188.981 49.7447 200.785 60.9757 200.785C72.2067 200.785 72.6467 188.981 72.6467 188.981H49.3047Z" fill="#F4E6DB"/>
<path d="M95.9865 188.981H72.6445L79.1285 157.577H99.8775L95.9865 188.981Z" fill="#FAC46A"/>
<path d="M72.6445 188.981C72.6445 188.981 73.0845 200.785 84.3155 200.785C95.5465 200.785 95.9865 188.981 95.9865 188.981H72.6445Z" fill="#FFCD85"/>
<path d="M119.331 188.981H95.9883L99.8793 157.577H120.627L119.331 188.981Z" fill="#EAD5C7"/>
<path d="M95.9883 188.981C95.9883 188.981 96.4283 200.785 107.659 200.785C118.89 200.785 119.33 188.981 119.33 188.981H95.9883Z" fill="#F4E6DB"/>
<path d="M142.67 188.981H119.328L120.624 157.577H141.373L142.67 188.981Z" fill="#FAC46A"/>
<path d="M119.328 188.981C119.328 188.981 119.768 200.785 130.999 200.785C142.23 200.785 142.67 188.981 142.67 188.981H119.328Z" fill="#FFCD85"/>
<path d="M166.014 188.981H142.672L141.375 157.577H162.124L166.014 188.981Z" fill="#EAD5C7"/>
<path d="M142.672 188.981C142.672 188.981 143.113 200.785 154.343 200.785C165.574 200.785 166.014 188.981 166.014 188.981H142.672Z" fill="#F4E6DB"/>
<path d="M189.357 188.981H166.015L162.125 157.577H182.873L189.357 188.981Z" fill="#FAC46A"/>
<path d="M166.016 188.981C166.016 188.981 166.456 200.785 177.687 200.785C188.918 200.785 189.358 188.981 189.358 188.981H166.016Z" fill="#FFCD85"/>
<path d="M212.698 188.981H189.355L182.871 157.577H203.62L212.698 188.981Z" fill="#EAD5C7"/>
<path d="M189.355 188.981C189.355 188.981 189.795 200.785 201.026 200.785C212.257 200.785 212.697 188.981 212.697 188.981H189.355Z" fill="#F4E6DB"/>
<path d="M219.206 383.518H42.7978C39.9448 383.518 37.6328 381.206 37.6328 378.354V289.145C37.6328 286.292 39.9458 283.979 42.7978 283.979H219.206C222.058 283.979 224.371 286.292 224.371 289.145V378.354C224.371 381.206 222.058 383.518 219.206 383.518Z" fill="#C55E3F"/>
<path d="M224.371 291.225H37.6328V302.224H224.371V291.225Z" fill="#AD422A"/>
<path d="M228.066 293.043H33.9367C31.4477 293.043 29.4297 291.025 29.4297 288.537V288.486C29.4297 285.997 31.4477 283.98 33.9367 283.98H228.066C230.555 283.98 232.573 285.998 232.573 288.486V288.537C232.573 291.025 230.555 293.043 228.066 293.043Z" fill="#E97A43"/>
<path d="M87.1132 352.632H174.371C180.054 352.632 184.66 348.025 184.66 342.343V230.269C184.66 224.586 180.053 219.98 174.371 219.98H87.1132C81.4302 219.98 76.8242 224.587 76.8242 230.269V342.342C76.8242 348.025 81.4302 352.632 87.1132 352.632Z" fill="#FAC46A"/>
<path d="M90.1091 343.466H171.378C173.788 343.466 175.741 341.513 175.741 339.103V233.509C175.741 231.099 173.788 229.146 171.378 229.146H90.1091C87.6991 229.146 85.7461 231.1 85.7461 233.509V339.104C85.7461 341.513 87.7001 343.466 90.1091 343.466Z" fill="#42281F"/>
<path d="M98.5425 269.494L98.53 267.808L110.301 267.719L110.314 269.405L105.378 269.442L105.482 283.451L103.581 283.465L103.478 269.457L98.5425 269.494ZM112.161 283.4L110.168 283.415L115.815 267.677L117.777 267.662L123.656 283.313L121.663 283.328L116.875 270.152L116.753 270.153L112.161 283.4ZM112.851 277.264L120.882 277.203L120.895 278.889L112.863 278.95L112.851 277.264ZM134.596 271.458C134.499 270.682 134.121 270.082 133.464 269.658C132.807 269.234 132.003 269.026 131.053 269.033C130.358 269.038 129.751 269.155 129.232 269.384C128.717 269.613 128.316 269.925 128.028 270.32C127.744 270.716 127.605 271.164 127.608 271.665C127.612 272.084 127.714 272.443 127.915 272.743C128.122 273.038 128.384 273.283 128.702 273.48C129.021 273.672 129.354 273.83 129.702 273.956C130.051 274.076 130.371 274.173 130.662 274.247L132.26 274.664C132.669 274.768 133.125 274.913 133.627 275.098C134.134 275.284 134.619 275.538 135.081 275.861C135.548 276.18 135.935 276.591 136.24 277.094C136.545 277.598 136.7 278.217 136.706 278.953C136.712 279.801 136.495 280.569 136.056 281.257C135.622 281.945 134.982 282.494 134.137 282.904C133.297 283.314 132.274 283.524 131.068 283.533C129.944 283.541 128.97 283.367 128.145 283.011C127.324 282.654 126.677 282.153 126.202 281.508C125.732 280.863 125.464 280.111 125.396 279.253L127.358 279.238C127.413 279.831 127.616 280.32 127.967 280.705C128.322 281.086 128.768 281.369 129.306 281.553C129.849 281.733 130.432 281.821 131.056 281.816C131.781 281.811 132.432 281.688 133.007 281.449C133.583 281.204 134.038 280.869 134.372 280.442C134.706 280.01 134.87 279.508 134.866 278.936C134.862 278.415 134.714 277.992 134.42 277.667C134.126 277.343 133.741 277.08 133.265 276.879C132.788 276.678 132.273 276.503 131.72 276.354L129.785 275.817C128.556 275.474 127.582 274.978 126.862 274.33C126.142 273.681 125.778 272.828 125.77 271.771C125.763 270.892 125.995 270.124 126.466 269.466C126.941 268.803 127.581 268.288 128.385 267.919C129.195 267.545 130.1 267.354 131.102 267.346C132.113 267.339 133.014 267.513 133.803 267.87C134.593 268.222 135.22 268.707 135.684 269.327C136.154 269.947 136.404 270.653 136.436 271.444L134.596 271.458ZM138.9 269.188L138.888 267.502L150.659 267.413L150.671 269.099L145.736 269.136L145.839 283.145L143.939 283.159L143.835 269.15L138.9 269.188ZM153.708 283.085L153.592 267.39L163.064 267.319L163.076 269.004L155.505 269.062L155.544 274.365L162.625 274.311L162.637 275.997L155.556 276.051L155.596 281.385L163.29 281.326L163.302 283.012L153.708 283.085ZM124.748 309.52C123.849 309.527 123.038 309.354 122.315 309.002C121.592 308.65 121.011 308.164 120.572 307.544C120.133 306.924 119.89 306.216 119.844 305.419L121.683 305.405C121.76 306.114 122.086 306.7 122.662 307.16C123.242 307.616 123.934 307.84 124.736 307.834C125.38 307.829 125.951 307.674 126.449 307.369C126.953 307.064 127.345 306.647 127.628 306.118C127.915 305.585 128.056 304.984 128.051 304.314C128.046 303.63 127.891 303.02 127.585 302.486C127.285 301.947 126.873 301.523 126.35 301.216C125.826 300.908 125.23 300.754 124.561 300.754C124.081 300.753 123.588 300.83 123.083 300.988C122.579 301.14 122.164 301.334 121.838 301.572L120.059 301.371L120.952 293.639L129.106 293.577L129.118 295.263L122.559 295.313L122.041 299.945L122.133 299.945C122.453 299.687 122.855 299.472 123.339 299.3C123.823 299.127 124.328 299.039 124.855 299.035C125.815 299.028 126.673 299.251 127.427 299.705C128.186 300.154 128.784 300.773 129.219 301.562C129.659 302.35 129.883 303.253 129.89 304.27C129.898 305.271 129.679 306.167 129.236 306.957C128.797 307.742 128.188 308.365 127.41 308.825C126.632 309.281 125.745 309.513 124.748 309.52ZM137.878 309.421C136.978 309.427 136.167 309.255 135.444 308.902C134.721 308.55 134.14 308.064 133.702 307.444C133.263 306.824 133.02 306.116 132.973 305.319L134.812 305.305C134.889 306.015 135.215 306.6 135.791 307.061C136.372 307.516 137.063 307.741 137.865 307.735C138.509 307.73 139.08 307.575 139.578 307.269C140.082 306.964 140.475 306.547 140.757 306.019C141.044 305.485 141.186 304.884 141.181 304.215C141.175 303.53 141.02 302.921 140.715 302.387C140.415 301.847 140.003 301.424 139.479 301.116C138.956 300.808 138.359 300.654 137.69 300.654C137.21 300.653 136.717 300.731 136.213 300.888C135.708 301.04 135.293 301.235 134.968 301.472L133.188 301.271L134.081 293.539L142.235 293.477L142.248 295.163L135.688 295.213L135.17 299.846L135.262 299.845C135.582 299.587 135.984 299.372 136.468 299.2C136.953 299.028 137.458 298.94 137.984 298.936C138.944 298.928 139.802 299.152 140.556 299.606C141.316 300.055 141.913 300.674 142.348 301.462C142.788 302.251 143.012 303.153 143.02 304.17C143.027 305.171 142.809 306.067 142.365 306.857C141.926 307.642 141.318 308.265 140.54 308.726C139.761 309.181 138.874 309.413 137.878 309.421Z" fill="#F4E6DB"/>
<path d="M613.413 195.416C611.558 195.616 609.583 196.254 608.202 197.571C606.23 199.452 605.145 202.32 603.774 204.648C602.625 206.599 601.82 208.445 603.146 210.537C605.213 213.798 601.316 215.553 601.671 218.851C602.025 222.149 606.072 222.952 602.335 226.732C602.335 226.732 606.34 228.077 610.351 224.118C612.604 221.894 614.335 221.914 620.189 221.507C625.281 221.153 627.546 218.715 627.235 214.396C626.836 208.861 628.596 208.993 627.061 205.503C625.526 202.014 623.188 202.281 622.143 199.602C620.862 196.323 617.002 195.029 613.413 195.416Z" fill="#42281F"/>
<path d="M622.351 275.181C622.351 275.181 629.827 283.521 626.278 294.365C622.729 305.209 613.228 331.648 613.228 331.648L613.267 376.082L608.195 377.618C608.195 377.618 600.05 349.578 600.456 331.474C600.99 307.725 603.705 274.657 622.351 275.181Z" fill="#8B4128"/>
<path d="M631.031 275.144C631.031 275.144 643.24 277.553 643.208 288.638C643.176 299.723 640.332 330.285 640.332 330.285L653.902 372.755L649.381 373.99C649.381 373.99 632.81 350.794 627.463 333.362C620.449 310.495 612.613 278.271 631.031 275.144Z" fill="#8B4128"/>
<path d="M611.504 261.563C611.504 261.563 624.376 229.088 614.078 226.295C603.78 223.501 600.535 260.074 600.535 260.074L573.852 256.857L572.246 261.264C572.246 261.264 590.442 267.555 601.771 269.842C608.931 271.286 611.504 261.563 611.504 261.563Z" fill="#8B4128"/>
<path d="M616.132 226.952L625.7 224.204L621.758 210.163L612.191 212.911L616.132 226.952Z" fill="#8B4128"/>
<path d="M606.564 248.21C606.106 245.051 605.779 241.721 605.779 238.654C605.779 228.43 611.415 222.953 622.871 222.953C634.327 222.953 637.38 226.972 637.38 237.196C637.38 247.42 636.329 262.024 636.329 262.024L642.666 284.507L622.87 284.074L605.684 290.76C607.631 280.21 608.101 258.82 606.564 248.21Z" fill="#8B4128"/>
<path d="M620.918 216.937C620.918 216.937 619.37 221.454 614.932 222.672L614.051 219.694L620.918 216.937Z" fill="#42281F"/>
<path d="M607.472 266.794C607.472 266.794 621.932 267.578 636.331 262.023C646.291 282.053 646.291 325.354 646.291 325.354C646.291 325.354 638.432 329.63 624.055 328.059C622.548 321.326 620.995 315.267 620.995 315.267L618.946 328.406C618.946 328.406 606.824 330.118 598.391 327.357C600.611 303.851 607.472 266.794 607.472 266.794Z" fill="#9BAB52"/>
<path d="M615.67 198.568C614.483 198.379 613.253 198.431 612.118 198.831C610.615 199.361 608.888 200.556 608.635 203.254C608.175 208.159 606.698 218.372 612.377 220.261C615.228 221.21 620.227 219.57 623.937 213.224C626.174 205.146 623.335 199.788 615.67 198.568Z" fill="#8B4128"/>
<path d="M631.672 278.712L629.066 265.906L632.819 268.358L634.434 278.347L631.672 278.712Z" fill="#D2C3B2"/>
<path d="M593.889 273.876C592.339 273.496 592.96 272.981 593.941 272.886C594.922 272.791 596.116 272.793 599.541 272.049C596.568 272.337 593.182 272.252 593.279 271.742C593.376 271.232 594.536 271.178 596.355 271.003C598.173 270.827 601.07 270.046 601.07 270.046C601.07 270.046 597.289 269.686 597.422 269.044C597.527 268.538 600.241 268.359 602.375 268.447C604.509 268.535 606.976 269.357 606.976 269.357L607.418 274.027C607.418 274.027 601.563 276.479 599.196 276.708C596.829 276.937 595.772 276.377 596.02 276.073C596.268 275.769 597.347 275.944 600.328 275.214C596.341 275.953 593.927 275.368 593.894 275.018C593.861 274.668 594.176 274.608 595.85 274.446C597.524 274.284 599.881 273.785 599.881 273.785C599.881 273.785 595.44 274.256 593.889 273.876Z" fill="#8B4128"/>
<path d="M561.934 259.182C560.426 258.654 561.092 258.202 562.078 258.202C563.064 258.202 564.252 258.319 567.732 257.909C564.746 257.909 561.383 257.498 561.528 257C561.673 256.501 562.833 256.56 564.659 256.56C566.485 256.56 569.443 256.061 569.443 256.061C569.443 256.061 565.713 255.338 565.906 254.712C566.058 254.219 568.776 254.302 570.893 254.595C573.009 254.888 576.494 257.063 576.494 257.063L575.387 260.635C575.387 260.635 569.327 262.512 566.95 262.512C564.573 262.512 563.572 261.852 563.848 261.574C564.123 261.295 565.182 261.574 568.218 261.134C564.18 261.486 561.832 260.671 561.832 260.319C561.832 259.967 562.151 259.938 563.832 259.938C565.514 259.938 567.908 259.668 567.908 259.668C567.908 259.668 563.442 259.71 561.934 259.182Z" fill="#8B4128"/>
<path d="M633.937 259.683C631.826 254.133 625.033 234.411 630.822 224.119L625.151 222.247C625.151 222.247 615.552 228.517 615.205 223.647C615.205 223.647 609.4 224.424 605.857 233.102C602.314 241.78 603.516 245.931 605.308 249.638C607.058 253.256 605.418 257.916 605.685 260.955V260.956C605.685 260.96 605.686 260.963 605.686 260.966C605.692 261.037 605.694 261.111 605.703 261.18H605.708C605.818 262.089 606.576 262.796 607.505 262.796C608.434 262.796 609.191 262.09 609.302 261.18H609.347C609.457 262.089 610.215 262.796 611.144 262.796C612.073 262.796 612.83 262.09 612.941 261.18H612.986C613.096 262.089 613.854 262.796 614.783 262.796C615.712 262.796 616.469 262.09 616.58 261.18H616.625C616.735 262.089 617.493 262.796 618.422 262.796C619.351 262.796 620.108 262.09 620.219 261.18H620.263C620.371 262.089 621.11 262.796 622.016 262.796C622.922 262.796 623.661 262.09 623.769 261.18H623.813C623.921 262.089 624.66 262.796 625.566 262.796C626.472 262.796 627.211 262.09 627.319 261.18H627.363C627.471 262.089 628.21 262.796 629.116 262.796C630.022 262.796 630.761 262.09 630.869 261.18H630.913C631.021 262.089 631.76 262.796 632.666 262.796C633.572 262.796 634.311 262.09 634.419 261.18L634.441 260.956L633.937 259.683Z" fill="#DC8041"/>
<path d="M641.304 253.821C641.377 245.926 640.583 226.001 630.82 224.118C621.893 225.747 631.045 260.931 631.045 260.931L605.684 269.638L606.387 274.182C606.387 274.182 623.003 272.869 633.708 268.479C641.14 265.431 641.69 260.637 641.468 258.336C641.324 256.835 641.291 255.33 641.304 253.821Z" fill="#8B4128"/>
<path d="M602.561 379.826L608.191 377.307L612.862 376.082C614.325 380.189 614.073 383.235 614.073 383.235C614.073 383.235 604.978 383.235 596.074 383.235C596.074 379.826 602.561 379.826 602.561 379.826Z" fill="#8B4128"/>
<path d="M614.089 382.975H596.074V383.519H614.089V382.975Z" fill="#42281F"/>
<path d="M600.188 380.061L601.143 383.204H608.309L606.06 378.26L600.188 380.061Z" fill="#42281F"/>
<path d="M607.762 376.082V377.499H613.406L613.265 376.082H607.762Z" fill="#42281F"/>
<path d="M613.378 377.189H612.814C612.814 377.189 613.182 378.22 613.409 379.881C610.832 380.883 611.115 383.246 611.115 383.246L614.091 383.518C614.805 380.569 613.378 377.189 613.378 377.189Z" fill="#42281F"/>
<path d="M644.718 377.701L649.063 373.29L652.977 370.437C655.812 373.728 656.669 376.66 656.669 376.66C656.669 376.66 648.192 379.993 639.894 383.257C638.672 380.078 644.718 377.701 644.718 377.701Z" fill="#8B4128"/>
<path d="M639.801 383.012L656.592 376.409L656.787 376.916L639.996 383.519L639.801 383.012Z" fill="#42281F"/>
<path d="M642.59 378.788L644.607 381.367L651.285 378.741L647.419 374.957L642.59 378.788Z" fill="#42281F"/>
<path d="M648.223 372.304L648.73 373.624L653.991 371.555L653.352 370.287L648.223 372.304Z" fill="#42281F"/>
<path d="M653.853 371.278L653.328 371.485C653.328 371.485 654.041 372.311 654.847 373.776C652.804 375.655 653.915 377.754 653.915 377.754L656.786 376.917C656.393 373.905 653.853 371.278 653.853 371.278Z" fill="#42281F"/>
<path d="M607.281 207.43C607.281 207.43 614.788 205.698 619.005 200.562C619.562 207.609 622.398 215.028 624.177 216.341C625.956 217.655 628.714 205.279 620.92 199.726C613.127 194.172 605.581 198.177 607.281 207.43Z" fill="#42281F"/>
<path d="M614.387 278.111L654.048 271.709L659.16 301.472C656.798 304.827 655.488 306.69 653.126 310.045L626.69 314.4C623.375 311.905 621.572 310.548 618.256 308.054L614.387 278.111Z" fill="#F4E6DB"/>
<path d="M628.273 261.884L631.047 260.931L638.658 277.609L635.848 278.347L628.273 261.884Z" fill="#F4E6DB"/>
<path d="M619.785 208.617C619.785 208.617 620.19 205.874 622.65 206.839C625.11 207.804 624.127 212.885 620.801 212.885C617.474 212.885 619.785 208.617 619.785 208.617Z" fill="#8B4128"/>
<path d="M531.01 197.467C529.898 195.298 523.371 195.362 519.778 196.128C519.778 190.132 513.627 193.965 513.627 196.511C513.627 198.858 516.757 198.746 516.757 198.746C516.757 198.746 513.036 200.912 513.415 205.906C513.622 208.633 510.892 208.671 510.892 211.266C510.892 213.86 507.55 214.945 507.834 216.954C512.974 221.196 523.064 221.172 523.064 221.172L531.01 202.606C531.01 202.606 532.698 200.759 531.01 197.467Z" fill="#FAC46A"/>
<path d="M531.445 259.467C531.445 259.467 514.139 229.684 523.467 225.16C532.795 220.636 542.945 256.387 542.945 256.387L563.967 269.432L565.661 274.667C565.661 274.667 550.707 273.081 540.904 268.056C534.604 264.827 531.445 259.467 531.445 259.467Z" fill="#F4E6DB"/>
<path d="M576.312 273.54C577.793 273.106 577.18 272.613 576.234 272.553C575.288 272.492 574.141 272.536 570.829 271.911C573.694 272.096 576.947 271.894 576.839 271.387C576.731 270.88 575.615 270.867 573.862 270.754C572.11 270.641 569.303 269.961 569.303 269.961C569.303 269.961 572.927 269.47 572.782 268.833C572.667 268.331 570.054 268.246 568.005 268.408C565.956 268.57 563.608 269.476 563.608 269.476L563.312 274.158C563.312 274.158 569.487 276.054 571.768 276.201C574.049 276.348 575.05 275.751 574.804 275.456C574.557 275.161 573.445 274.955 570.161 275.099C574.013 275.7 576.317 275.031 576.34 274.68C576.362 274.329 576.058 274.28 574.444 274.176C572.83 274.072 570.551 273.655 570.551 273.655C570.551 273.655 574.832 273.973 576.312 273.54Z" fill="#E97A43"/>
<path d="M535.318 277.849C535.317 277.827 535.315 277.806 535.313 277.784C538.359 275.67 534.763 255.847 535.829 248.494C536.287 245.335 536.614 242.005 536.614 238.937C536.614 228.713 530.978 223.236 519.522 223.236C508.067 223.236 502.43 228.713 502.43 238.937C502.43 242.004 502.757 245.334 503.215 248.494C504.605 258.086 499.589 272.039 501.683 277.784C501.732 277.919 501.742 278.023 501.739 278.118C501.786 278.005 501.835 277.886 501.878 277.784C501.878 277.784 524.387 281.828 535.318 277.849ZM504.674 236.292C505.325 228.397 509.32 228.072 509.32 228.072C515.453 226.901 517.869 231.311 518.453 238.642C519.036 245.973 517.498 249.827 512.573 250.391C507.648 250.954 504.024 244.187 504.674 236.292Z" fill="#9BAB52"/>
<path d="M537.761 297.442C537.886 297.415 537.952 297.399 537.952 297.399C537.952 297.399 537.926 288.73 535.51 277.784C535.449 277.807 535.382 277.827 535.32 277.849C524.389 281.827 501.88 277.784 501.88 277.784C501.837 277.886 501.788 278.005 501.741 278.118C501.669 278.29 501.595 278.475 501.517 278.673C501.434 278.883 501.35 279.107 501.262 279.347C500.006 282.792 498.505 289.293 501.748 299.099C504.295 311.67 507.711 332.84 507.711 332.84L505.056 377.591H513.359C513.359 377.591 520.574 349.901 521.896 331.909C522.017 330.265 522.136 328.573 522.249 326.853C522.852 330.469 523.235 332.841 523.235 332.841L520.58 377.592H528.883C528.883 377.592 536.098 349.902 537.42 331.91C538.221 321.018 538.996 308.15 537.761 297.442Z" fill="#42281F"/>
<path d="M501.332 279.098L501.262 279.348C501.349 279.108 501.434 278.884 501.517 278.674C501.45 278.789 501.383 278.919 501.332 279.098Z" fill="#9BAB52"/>
<path d="M561.249 245.709C561.093 240.828 560.561 223.734 560.596 219.301C560.637 214.112 560.259 212.565 558.777 214.36C559.199 212.357 558.059 209.12 556.855 212.414C556.519 211.199 554.684 211.512 555.006 215.12C554.444 213.781 552.461 212.971 553.469 218.929C554.33 224.017 557.596 241.067 558.531 245.937C556.851 246.752 555.758 248.718 555.908 250.397C556.094 252.482 558.124 253.335 560.515 253.117C562.906 252.899 564.753 251.693 564.567 249.608C564.419 247.945 563.022 246.227 561.249 245.709Z" fill="#576831"/>
<path d="M558.13 245.455C557.768 240.941 556.511 225.134 556.346 221.026C556.153 216.218 555.734 214.802 554.442 216.533C554.743 214.659 553.061 213.9 552.586 215.506C552.506 213.039 549.336 212.604 550.982 217.41C550.402 216.195 548.529 215.536 549.729 221.008C550.754 225.681 554.539 241.324 555.623 245.792C554.103 246.624 553.18 248.494 553.393 250.042C553.658 251.965 555.576 252.662 557.781 252.351C559.986 252.04 561.642 250.839 561.377 248.916C561.165 247.381 559.795 245.853 558.13 245.455Z" fill="#667637"/>
<path d="M564.512 213.686L565.578 214.371C565.578 214.371 565.185 214.998 564.799 216.237L563.453 215.372L564.512 213.686Z" fill="#42281F"/>
<path d="M563.452 215.371L564.798 216.236C564.168 218.257 563.559 221.909 564.711 227.136C566.037 233.155 570.65 236.948 573.181 238.625C574.01 239.175 573.726 240.469 572.745 240.612C569.393 241.1 563.082 239.496 559.322 231.796C554.417 221.756 563.452 215.371 563.452 215.371Z" fill="#FAC46A"/>
<path d="M563.853 213.397L564.789 214.254C564.789 214.254 564.297 214.805 563.709 215.96L562.527 214.878L563.853 213.397Z" fill="#42281F"/>
<path d="M562.526 214.879L563.708 215.961C562.75 217.846 561.54 221.341 561.802 226.69C562.104 232.849 566.017 237.375 568.232 239.461C568.958 240.144 568.463 241.372 567.471 241.345C564.085 241.254 558.132 238.594 555.711 230.363C552.554 219.629 562.526 214.879 562.526 214.879Z" fill="#FAC46A"/>
<path d="M573.388 216.657C573.388 216.657 572.673 215.593 571.621 216.316C570.569 217.04 571.866 219.877 571.866 219.877C571.866 219.877 570.694 218.134 570.02 219.521C569.346 220.909 571.143 223.529 571.143 223.529C571.143 223.529 569.848 222.203 569.259 223.65C568.67 225.097 572.116 228.333 572.116 228.333C572.116 228.333 576.496 226.605 576.475 225.04C576.454 223.475 574.767 224.227 574.767 224.227C574.767 224.227 577.391 222.458 577.269 220.917C577.147 219.376 575.423 220.561 575.423 220.561C575.423 220.561 577.661 218.405 576.945 217.341C576.23 216.277 575.178 217 575.178 217C575.178 217 576.207 214.004 574.863 213.745C573.52 213.488 573.388 216.657 573.388 216.657Z" fill="#828E3C"/>
<path d="M567.77 255.73C567.431 256.715 566.161 256.47 566.204 255.428C566.6 245.828 567.951 226.204 572.36 227.053C576.769 227.903 570.891 246.655 567.77 255.73Z" fill="#C55E3F"/>
<path d="M576.352 220.064C576.352 220.064 575.699 218.96 574.607 219.62C573.515 220.28 574.647 223.189 574.647 223.189C574.647 223.189 573.577 221.38 572.825 222.725C572.072 224.071 573.716 226.793 573.716 226.793C573.716 226.793 572.499 225.393 571.829 226.803C571.158 228.213 574.412 231.646 574.412 231.646C574.412 231.646 578.885 230.179 578.954 228.616C579.023 227.053 577.296 227.704 577.296 227.704C577.296 227.704 580.017 226.093 579.984 224.547C579.951 223.002 578.162 224.083 578.162 224.083C578.162 224.083 580.52 222.062 579.867 220.958C579.214 219.854 578.122 220.514 578.122 220.514C578.122 220.514 579.322 217.584 577.995 217.246C576.667 216.908 576.352 220.064 576.352 220.064Z" fill="#828E3C"/>
<path d="M568.493 258.739C568.098 259.702 566.844 259.383 566.947 258.346C567.895 248.786 570.373 229.274 574.726 230.382C579.079 231.49 572.132 249.864 568.493 258.739Z" fill="#C55E3F"/>
<path d="M559.859 229.857C559.859 229.857 560.406 227.672 562.4 226.813C562.792 227.742 562.792 227.742 562.792 227.742C562.792 227.742 561.276 227.873 560.4 230.077" fill="#42281F"/>
<path d="M564.615 230.086C563.891 229.791 563.205 229.645 562.589 229.59C561.319 229.476 560.117 228.987 559.123 228.18C558.641 227.788 558.046 227.413 557.322 227.119C554.821 226.101 550.085 229.802 552.656 236.885C553.122 238.17 554.119 239.187 555.375 239.698L555.772 239.859L557.012 240.364L557.409 240.525C558.665 241.036 560.08 241 561.297 240.399C568 237.09 567.116 231.104 564.615 230.086Z" fill="#9BAB52"/>
<path d="M569.778 232.559L571.564 225.532L569.852 225.131L568.193 224.742L566.481 224.341L565.029 231.447C564.05 231.217 563.072 231.834 562.845 232.825L560.769 241.885C560.564 242.778 561.12 243.679 562.003 243.886L567.087 245.077C567.97 245.284 568.861 244.722 569.066 243.829L571.142 234.769C571.368 233.778 570.758 232.789 569.778 232.559Z" fill="#E97A43"/>
<path d="M561.254 240.124L569.551 242.068L570.909 236.141L562.612 234.196L561.254 240.124Z" fill="#576831"/>
<path d="M566.39 224.884L571.412 226.061C571.704 226.129 571.997 225.944 572.065 225.649C572.133 225.354 571.949 225.057 571.658 224.989L566.636 223.812C566.344 223.744 566.051 223.929 565.983 224.224C565.915 224.518 566.098 224.816 566.39 224.884Z" fill="#42281F"/>
<path d="M551.918 219.606C548.445 217.531 545.939 216.464 546.004 217.161C546.073 217.893 548.952 220.328 552.723 222.9C553.231 225.132 553.705 227.527 554.125 230.05C549.992 227.46 546.832 226.024 546.905 226.806C546.979 227.601 550.367 230.402 554.612 233.208C554.914 235.33 555.175 237.526 555.386 239.778C555.391 239.829 555.395 239.88 555.4 239.931C551.086 237.193 547.732 235.646 547.807 236.452C547.882 237.255 551.338 240.105 555.644 242.94C555.799 245.138 555.897 247.283 555.946 249.352C551.805 246.755 548.636 245.314 548.709 246.097C548.781 246.865 551.941 249.503 555.981 252.209C555.984 254.37 555.931 256.432 555.832 258.371C552.2 256.175 549.544 255.024 549.611 255.742C549.675 256.43 552.223 258.622 555.661 261.019C555.012 269.33 553.461 274.792 551.797 274.952C548.947 275.225 546.849 259.831 545.066 240.766C543.283 221.701 542.491 206.182 545.341 205.91C547.056 205.745 549.697 211.136 551.918 219.606Z" fill="#E97A43"/>
<path d="M547.81 236.451C547.735 235.645 551.088 237.193 555.403 239.93C555.497 240.943 555.578 241.946 555.648 242.938C551.342 240.105 547.885 237.254 547.81 236.451Z" fill="#C55E3F"/>
<path d="M548.708 246.096C548.635 245.313 551.803 246.754 555.945 249.351C555.967 250.321 555.979 251.274 555.98 252.208C551.941 249.502 548.78 246.864 548.708 246.096Z" fill="#C55E3F"/>
<path d="M549.611 255.74C549.544 255.022 552.2 256.173 555.832 258.369C555.785 259.28 555.728 260.164 555.661 261.017C552.224 258.621 549.676 256.429 549.611 255.74Z" fill="#C55E3F"/>
<path d="M546.005 217.161C545.94 216.463 548.445 217.53 551.919 219.606C552.195 220.658 552.464 221.758 552.725 222.9C548.952 220.328 546.073 217.894 546.005 217.161Z" fill="#C55E3F"/>
<path d="M546.907 226.806C546.834 226.024 549.995 227.46 554.128 230.05C554.3 231.082 554.462 232.135 554.615 233.207C550.37 230.402 546.982 227.601 546.907 226.806Z" fill="#C55E3F"/>
<path d="M579.027 233.247L577.947 232.222L576.868 233.247H576.731L575.651 232.222L574.572 233.247H574.435L573.355 232.222L572.276 233.247H572.139L571.059 232.222L569.98 233.247H569.843L568.763 232.222L567.683 233.247H567.547L566.467 232.222L565.387 233.247H565.251L564.171 232.222L563.092 233.247H562.955L561.875 232.222L560.795 233.247H560.659L559.579 232.222L558.499 233.247H558.363L557.283 232.222L556.203 233.247H556.067L554.987 232.222L553.907 233.247H553.771L552.691 232.222L551.611 233.247H551.475L550.395 232.222L549.315 233.247H549.179L548.099 232.222L547.019 233.247H546.883L545.803 232.222L544.723 233.247H544.587L543.507 232.222L542.427 233.247H542.359V274.957H579.095V233.247H579.027Z" fill="#FAC46A"/>
<path d="M512.942 227.492C510.853 226.902 508.557 227.648 507.141 229.309C506.046 230.594 504.969 232.739 504.677 236.292C504.026 244.187 507.651 250.954 512.576 250.391C517.501 249.827 519.04 245.973 518.456 238.642C517.994 232.826 516.398 228.468 512.942 227.492Z" fill="#F4E6DB"/>
<path d="M515.6 223.237L513.625 223.825C513.625 223.825 516.903 226.44 521.719 229.225C526.534 232.01 528.742 230.875 528.742 229.776C528.742 228.118 525.411 223.881 525.411 223.881C525.411 223.881 521.573 222.19 515.6 223.237Z" fill="#F4E6DB"/>
<path d="M524.128 226.929L515.094 224.487L519.036 210.447L528.859 213.452L524.128 226.929Z" fill="#E97A43"/>
<path d="M519.789 217.379C519.789 217.379 521.107 221.676 525.545 222.893L526.656 220.136L519.789 217.379Z" fill="#42281F"/>
<path d="M518.87 262.306C518.87 262.306 499.308 234.125 508.346 228.404C519.919 221.078 530.606 258.493 530.606 258.493L553.279 270.16L555.38 275.276C555.38 275.276 539.754 274.655 529.249 270.27C522.499 267.453 518.87 262.306 518.87 262.306Z" fill="#F4E6DB"/>
<path d="M528.186 224.664L525.734 223.403L526.172 228.36L529.895 230.579L528.186 224.664Z" fill="#F4E6DB"/>
<path d="M525.412 223.236L524 227.292L525.248 228.095L526.314 228.665L525.736 223.403L525.412 223.236Z" fill="#D2C3B2"/>
<path d="M525.122 198.852C526.309 198.663 527.539 198.715 528.674 199.115C530.177 199.645 531.904 200.84 532.157 203.538C532.617 208.443 534.094 218.656 528.415 220.545C525.564 221.494 520.565 219.854 516.855 213.508C514.618 205.43 517.457 200.073 525.122 198.852Z" fill="#E97A43"/>
<path d="M516.567 380.11L513.359 377.591H505.056C503.593 381.698 505.056 383.519 505.056 383.519C505.056 383.519 514.151 383.519 523.055 383.519C523.054 380.11 516.567 380.11 516.567 380.11Z" fill="#7A3421"/>
<path d="M532.087 380.11L528.879 377.591H520.576C519.113 381.698 520.576 383.519 520.576 383.519C520.576 383.519 529.671 383.519 538.575 383.519C538.575 380.11 532.087 380.11 532.087 380.11Z" fill="#7A3421"/>
<path d="M566.364 274.086C567.466 273.932 567.205 273.105 566.219 273.105C565.233 273.105 562.09 272.867 560.565 272.191C563.551 272.191 566.914 271.78 566.769 271.282C566.624 270.783 565.464 270.842 563.638 270.842C561.811 270.842 558.854 270.343 558.854 270.343C558.854 270.343 562.584 269.62 562.391 268.994C562.239 268.501 559.521 268.584 557.404 268.877C555.287 269.17 552.91 270.226 552.91 270.226V274.918C552.91 274.918 559.361 276.378 561.739 276.378C564.116 276.378 565.117 275.718 564.841 275.44C564.566 275.161 563.115 275.099 560.079 275.417C564.117 275.769 566.465 274.954 566.465 274.602C566.465 274.25 566.146 274.221 564.465 274.221C562.784 274.221 560.39 273.951 560.39 273.951C560.39 273.951 562.207 274.667 566.364 274.086Z" fill="#E97A43"/>
<path d="M515.567 221.171L512.516 224.104L523.604 232.412L526.572 228.311L515.567 221.171Z" fill="#F4E6DB"/>
<path d="M517.199 215.281C517.199 215.281 521.992 212.83 522.812 202.247C528.109 202.247 531.57 201.478 531.57 201.478C531.57 201.478 531.767 196.83 522.307 198.042C512.847 199.253 514.676 210.388 517.199 215.281Z" fill="#FAC46A"/>
<path d="M522 208.902C522 208.902 521.595 206.159 519.135 207.124C516.675 208.089 517.658 213.17 520.984 213.17C524.31 213.17 522 208.902 522 208.902Z" fill="#E97A43"/>
</svg>
